<svg class="main-svg" xmlns="http://www.w3.org/2000/svg" xmlns:xlink="http://www.w3.org/1999/xlink" width="700" height="500" style="" viewBox="0 0 700 500"><rect x="0" y="0" width="700" height="500" style="fill: rgb(255, 255, 255); fill-opacity: 1;"/><defs id="defs-a1acdc"><g class="clips"><clipPath id="clipa1acdcxyplot" class="plotclip"><rect width="322" height="428"/></clipPath><clipPath class="axesclip" id="clipa1acdcx"><rect x="62" y="0" width="322" height="500"/></clipPath><clipPath class="axesclip" id="clipa1acdcy"><rect x="0" y="25" width="700" height="428"/></clipPath><clipPath class="axesclip" id="clipa1acdcxy"><rect x="62" y="25" width="322" height="428"/></clipPath><clipPath class="contourlineclip" id="clipline0e42db"><path d="M0,0L322,0L322,428L0,428ZM74.59374800473564,88.38669197726847L75.34013943043708,99.03243365435534L116.31767218162504,96.15942771267294L115.57128075592361,85.51368603558606ZM187.14051738543603,97.45103924340177L192.4145435045526,106.7286232236469L221.49698464906916,90.19613432023755L216.2229585299526,80.91855033999241ZM55.923051762531635,138.0945351410452L55.73982534709709,148.76483710942043L96.81189544205822,149.4701112619496L96.99512185749276,138.79980929357438ZM255.33982542785753,119.68594966684948L260.1777212490966,129.1982406652611L289.9958984490956,114.03288934275339L285.15800262785655,104.52059834434176ZM48.29993305805425,178.05339375257157L48.13626053054446,188.72401357146512L89.20955409404536,189.3540210016602L89.37322662155515,178.68340118276663ZM152.43039163479955,353.4727185595432L158.6723400921872,362.12875665274385L168.11413859794783,355.32018915530057L161.87219014056018,346.6641510620999ZM294.10556815115007,141.5569090412873L298.26760470127414,151.38372784347635L308.98646269194893,146.84387831222833L304.82442614182486,137.01705951003927ZM217.83214491648798,265.0594945438316L212.3035109218387,274.1876445299369L239.04645107146777,290.38500415408504L244.57508506611705,281.2568541679797ZM257.7130094251458,363.5346331091312L266.24180187709845,369.9493517566745L280.4424674628751,351.0686282027178L271.9136750109224,344.6539095551745ZM258.07425328381373,210.5759619265671L263.52545437146887,219.7505639733903L290.40448613675915,203.78006122610216L284.953285049104,194.60545917927894Z"/></clipPath></g><g class="gradients"/><g class="patterns"/></defs><g class="bglayer"/><g class="layer-below"><g class="imagelayer"/><g class="shapelayer"/></g><g class="cartesianlayer"><g class="subplot xy"><g class="layer-subplot"><g class="shapelayer"/><g class="imagelayer"/></g><g class="gridlayer"><g class="x"><path class="xgrid crisp" transform="translate(81.88,0)" d="M0,25v428" style="stroke: rgb(238, 238, 238); stroke-opacity: 1; stroke-width: 1px;"/><path class="xgrid crisp" transform="translate(161.38,0)" d="M0,25v428" style="stroke: rgb(238, 238, 238); stroke-opacity: 1; stroke-width: 1px;"/><path class="xgrid crisp" transform="translate(320.4,0)" d="M0,25v428" style="stroke: rgb(238, 238, 238); stroke-opacity: 1; stroke-width: 1px;"/></g><g class="y"><path class="ygrid crisp" transform="translate(0,426.58)" d="M62,0h322" style="stroke: rgb(238, 238, 238); stroke-opacity: 1; stroke-width: 1px;"/><path class="ygrid crisp" transform="translate(0,373.74)" d="M62,0h322" style="stroke: rgb(238, 238, 238); stroke-opacity: 1; stroke-width: 1px;"/><path class="ygrid crisp" transform="translate(0,320.9)" d="M62,0h322" style="stroke: rgb(238, 238, 238); stroke-opacity: 1; stroke-width: 1px;"/><path class="ygrid crisp" transform="translate(0,268.06)" d="M62,0h322" style="stroke: rgb(238, 238, 238); stroke-opacity: 1; stroke-width: 1px;"/><path class="ygrid crisp" transform="translate(0,162.38)" d="M62,0h322" style="stroke: rgb(238, 238, 238); stroke-opacity: 1; stroke-width: 1px;"/><path class="ygrid crisp" transform="translate(0,109.54)" d="M62,0h322" style="stroke: rgb(238, 238, 238); stroke-opacity: 1; stroke-width: 1px;"/><path class="ygrid crisp" transform="translate(0,56.7)" d="M62,0h322" style="stroke: rgb(238, 238, 238); stroke-opacity: 1; stroke-width: 1px;"/></g></g><g class="zerolinelayer"><path class="xzl zl crisp" transform="translate(240.89,0)" d="M0,25v428" style="stroke: rgb(68, 68, 68); stroke-opacity: 1; stroke-width: 1px;"/><path class="yzl zl crisp" transform="translate(0,215.22)" d="M62,0h322" style="stroke: rgb(68, 68, 68); stroke-opacity: 1; stroke-width: 1px;"/></g><path class="xlines-below"/><path class="ylines-below"/><g class="overlines-below"/><g class="xaxislayer-below"/><g class="yaxislayer-below"/><g class="overaxes-below"/><g class="plot" transform="translate(62,25)" clip-path="url(#clipa1acdcxyplot)"><g class="contourlayer mlayer"><g class="contour" style="opacity: 1;"><g class="heatmapcoloring"/><g class="contourbg"><path d="M0,0L322,0L322,428L0,428Z" style="stroke: none; fill: rgb(0, 0, 0);"/></g><g class="contourfill"><path d="M0,0L322,0L322,428L0,428ZM41.33,87.295C43.37,87.88 45.61,88.35 47.7,88.81C49.72,89.26 51.68,89.66 53.67,90.04C55.65,90.41 57.64,90.75 59.63,91.06C61.61,91.37 63.6,91.64 65.59,91.88C67.58,92.12 69.57,92.31 71.56,92.48C73.55,92.64 75.53,92.78 77.52,92.87C79.51,92.96 81.49,93.01 83.48,93.02C85.47,93.03 87.45,93.01 89.44,92.95C91.43,92.89 93.42,92.78 95.41,92.64C97.4,92.5 99.39,92.33 101.37,92.11C103.36,91.89 105.34,91.63 107.33,91.34C109.32,91.05 111.31,90.72 113.3,90.36C115.29,89.99 117.28,89.59 119.26,89.15C121.25,88.71 123.76,88.1 125.22,87.73C126.07,87.51 126.45,87.44 127.22,87.19C128.33,86.84 129.74,86.29 131.19,85.73C132.98,85.03 135.17,84.14 137.15,83.28C139.15,82.41 141.53,81.3 143.11,80.55C144.16,80.05 144.82,79.83 145.71,79.26C146.79,78.57 147.8,77.62 149.07,76.56C150.79,75.12 153.53,73.48 155.04500000000002,71.34C156.61,69.12 158,66.08 158.19,63.41C158.38,60.8 157.07,57.05 156.29,55.48C155.91,54.71 155.61,54.63 155.04,53.95C153.83,52.52 151.4,49.22 149.32999999999998,47.375C147.4,45.66 145.15,44.47 143.11,43.13C141.18,41.86 139.38,40.57 137.39499999999998,39.510000000000005C135.41,38.45 133.25,37.62 131.19,36.75C129.19,35.9 127.22,35.1 125.22,34.33C123.24,33.56 120.53,32.57 119.26,32.13C118.67,31.92 118.53,31.87 117.96,31.7C116.89,31.38 114.95,30.86 113.3,30.45C111.44,29.98 109.32,29.49 107.33,29.06C105.35,28.63 103.36,28.24 101.37,27.88C99.39,27.53 97.4,27.21 95.41,26.93C93.42,26.65 91.43,26.41 89.44,26.2C87.45,26 85.47,25.83 83.48,25.7C81.49,25.57 79.51,25.49 77.52,25.44C75.53,25.39 73.55,25.38 71.56,25.41C69.57,25.44 67.58,25.52 65.59,25.63C63.6,25.75 61.61,25.9 59.63,26.1C57.64,26.3 55.65,26.53 53.67,26.81C51.68,27.09 49.69,27.41 47.7,27.77C45.71,28.13 43.72,28.53 41.74,28.97C39.75,29.41 37.62,29.94 35.78,30.43C34.18,30.85 32.41,31.34 31.32,31.7C30.68,31.91 30.48,32 29.81,32.26C28.48,32.79 25.83,33.88 23.85,34.76C21.85,35.65 19.65,36.71 17.89,37.6C16.47,38.32 15.13,38.93 14.07,39.63C13.22,40.19 12.81,40.6 11.93,41.34C10.43,42.61 7.09,45.59 5.96,46.64C5.5,47.07 5.37,47.05 5.01,47.56C4.1,48.87 1.83,52.79 1.48,55.48C1.14,58.07 1.82,61.27 2.74,63.41C3.49,65.16 4.91,66.29 5.96,67.65C6.94,68.92 7.79,70.32 8.85,71.33C9.8,72.23 10.73,72.67 11.93,73.5C13.59,74.64 16.28,76.46 17.89,77.52C18.97,78.23 19.64,78.74 20.61,79.26C21.62,79.8 22.6,80.16 23.85,80.69C25.53,81.41 27.82,82.36 29.81,83.15C31.79,83.93 33.82,84.71 35.78,85.41C37.66,86.08 39.4,86.74 41.33,87.295Z" style="stroke: none; fill: rgb(26, 26, 26);"/><path d="M0,109.04Q4.19,110.32 6.225,110.88499999999999C8.16,111.42 10.01,111.87 11.93,112.35C13.89,112.84 15.9,113.33 17.89,113.79C19.87,114.25 21.86,114.7 23.85,115.13C25.84,115.56 27.82,115.98 29.81,116.38C31.8,116.78 33.79,117.16 35.78,117.52C37.77,117.88 40.23,118.3 41.74,118.55C42.66,118.7 43.14,118.77 43.98,118.89C45.06,119.05 46.31,119.23 47.7,119.41C49.45,119.64 51.68,119.92 53.67,120.14C55.66,120.36 57.64,120.56 59.63,120.74C61.62,120.92 63.6,121.08 65.59,121.22C67.58,121.36 69.57,121.47 71.56,121.56C73.55,121.65 75.53,121.73 77.52,121.78C79.51,121.83 81.49,121.86 83.48,121.86C85.47,121.86 87.45,121.84 89.44,121.8C91.43,121.76 93.42,121.7 95.41,121.61C97.4,121.53 99.38,121.42 101.37,121.29C103.36,121.16 105.34,121 107.33,120.83C109.32,120.66 111.31,120.46 113.3,120.25C115.29,120.04 117.38,119.79 119.26,119.55C120.95,119.33 123.02,119.04 124.07,118.89C124.59,118.82 124.69,118.8 125.22,118.72C126.43,118.53 129.2,118.06 131.19,117.7C133.18,117.34 135.17,116.97 137.15,116.58C139.14,116.19 141.13,115.77 143.11,115.34C145.1,114.91 147.08,114.46 149.07,114C151.06,113.54 153.04,113.06 155.04,112.56C157.06,112.06 159.12,111.56 161.125,110.995C163.1,110.44 165.01,109.83 166.96,109.22C168.94,108.6 170.94,107.95 172.93,107.3C174.92,106.64 176.89,105.98 178.89,105.29C180.93,104.59 183.06,103.9 185.065,103.11500000000001C187.03,102.35 188.88,101.49 190.81,100.64C192.78,99.77 194.79,98.87 196.78,97.95C198.78,97.03 200.81,96.19 202.77,95.125C204.78,94.03 206.7,92.73 208.7,91.47C210.78,90.16 213.03,88.94 215.005,87.41C217,85.86 219.05,83.72 220.63,82.22C221.8,81.11 222.72,80.45 223.65,79.26C224.74,77.87 225.76,75.7 226.59,74.25C227.22,73.15 227.8,72.59 228.23,71.33C228.9,69.38 229.52,66.04 229.39,63.41C229.26,60.76 228.08,57.02 227.44,55.48C227.15,54.79 226.98,54.71 226.59,54.07C225.75,52.69 223.77,49.1 222.6,47.56C221.88,46.61 221.46,46.32 220.63,45.43C219.22,43.93 216.91,41.28 214.89999999999998,39.44C212.93,37.64 210.49,35.91 208.7,34.5C207.34,33.43 206.2,32.48 205.11,31.7C204.25,31.09 203.71,30.78 202.74,30.15C201.21,29.16 198.59,27.49 196.78,26.35C195.27,25.4 193.73,24.43 192.62,23.78C191.9,23.36 191.59,23.2 190.81,22.78C189.4,22.02 186.84,20.65 184.85,19.61C182.87,18.57 180.19,17.21 178.89,16.55C178.26,16.23 178.09,16.14 177.48,15.85C176.4,15.34 174.55,14.5 172.93,13.78C171.08,12.96 168.95,12.04 166.96,11.19C164.98,10.35 162.45,9.3 161,8.71C160.16,8.37 159.8,8.23 159.02,7.93C157.92,7.51 156.5,6.97 155.04,6.44C153.25,5.79 151.06,5.02 149.07,4.34C147.09,3.66 145.1,3.01 143.11,2.37C141.13,1.74 138.57,0.95 137.15,0.53Q136.36,0.29 135.3,0L322,0L322,428L0,428Z" style="stroke: none; fill: rgb(51, 51, 51);"/><path d="M0,133.93Q2.53,134.5 3.6,134.74C4.47,134.93 4.99,135.05 5.96,135.25C7.5,135.57 9.94,136.08 11.93,136.48C13.92,136.88 15.9,137.27 17.89,137.64C19.88,138.01 21.86,138.36 23.85,138.71C25.84,139.05 27.82,139.39 29.81,139.71C31.8,140.03 33.79,140.32 35.78,140.61C37.77,140.9 39.75,141.17 41.74,141.43C43.73,141.68 45.74,141.92 47.7,142.14C49.59,142.35 51.37,142.53 53.295,142.70499999999998C55.34,142.89 57.55,143.07 59.63,143.22C61.65,143.36 63.6,143.49 65.59,143.59C67.58,143.7 69.57,143.78 71.56,143.85C73.55,143.92 75.53,143.96 77.52,143.99C79.51,144.02 81.49,144.02 83.48,144.01C85.47,144 87.45,143.97 89.44,143.92C91.43,143.87 93.42,143.79 95.41,143.7C97.4,143.61 99.38,143.5 101.37,143.37C103.36,143.24 105.7,143.06 107.33,142.93C108.46,142.84 109.23,142.76 110.21,142.67C111.22,142.58 112.1,142.5 113.3,142.37C114.96,142.19 117.27,141.93 119.26,141.69C121.25,141.45 123.23,141.19 125.22,140.91C127.21,140.63 129.2,140.34 131.19,140.03C133.18,139.72 135.16,139.4 137.15,139.06C139.14,138.72 141.12,138.37 143.11,138C145.1,137.63 147.08,137.25 149.07,136.86C151.06,136.47 153.23,136.02 155.04,135.64C156.56,135.32 158.12,134.98 159.22,134.74C159.94,134.58 160.23,134.52 161,134.34C162.4,134.01 164.97,133.4 166.96,132.92C168.95,132.43 170.94,131.94 172.93,131.43C174.92,130.92 176.9,130.41 178.89,129.88C180.88,129.35 182.9,128.81 184.85,128.27C186.74,127.75 188.51,127.26 190.42000000000002,126.695C192.47,126.09 194.7,125.38 196.78,124.72C198.8,124.08 200.76,123.45 202.74,122.8C204.73,122.15 206.73,121.47 208.7,120.8C210.64,120.14 212.51,119.53 214.45499999999998,118.81C216.48,118.06 218.59,117.2 220.63,116.38C222.64,115.57 224.6,114.76 226.59,113.94C228.58,113.11 231.38,111.94 232.56,111.43C233.06,111.21 233.14,111.18 233.62,110.96C234.66,110.47 236.81,109.39 238.52,108.53C240.41,107.57 242.63,106.44 244.48,105.47C246.11,104.62 248,103.66 249.07,103.04C249.67,102.69 249.82,102.57 250.44,102.17C251.73,101.34 254.54,99.52 256.41,98.28C258.08,97.18 260.08,95.91 261.13,95.11C261.69,94.68 261.8,94.54 262.37,94.05C263.62,92.97 266.92,90.06 268.33,88.81C269.11,88.12 269.45,87.93 270.14,87.19C271.29,85.96 273.17,83.3 274.3,81.84C275.08,80.83 275.59,80.41 276.26,79.26C277.34,77.39 278.94,74.03 279.61,71.33C280.25,68.74 280.47,66.04 280.28,63.41C280.09,60.75 279.38,58.06 278.42,55.48C277.42,52.78 275.94,50.12 274.28999999999996,47.57C272.56,44.89 270.27,42.15 268.19,39.81C266.29,37.68 263.89,35.53 262.37,34.04C261.39,33.08 260.85,32.5 259.95,31.7C258.9,30.76 257.75,29.88 256.41,28.78C254.66,27.35 252.36,25.41 250.325,23.87C248.38,22.39 246.43,21.07 244.48,19.7C242.56,18.35 240.69,17.02 238.72500000000002,15.715C236.72,14.39 234.62,13.09 232.56,11.81C230.51,10.53 228.43,9.24 226.405,8.04C224.46,6.89 222.57,5.83 220.63,4.73C218.66,3.62 216.26,2.3 214.67,1.43Q213.61,0.85 212.01,0L322,0L322,428L0,428Z" style="stroke: none; fill: rgb(77, 77, 77);"/><path d="M0,155.71Q3.97,156.49 5.96,156.86C7.95,157.23 10.24,157.65 11.93,157.95C13.19,158.17 14.17,158.34 15.21,158.52C16.15,158.68 16.82,158.8 17.89,158.97C19.48,159.23 21.86,159.61 23.85,159.91C25.84,160.21 27.82,160.5 29.81,160.77C31.8,161.04 33.79,161.3 35.78,161.54C37.77,161.78 39.75,162.01 41.74,162.23C43.73,162.44 45.71,162.65 47.7,162.83C49.69,163.01 51.68,163.17 53.67,163.32C55.66,163.47 57.64,163.6 59.63,163.72C61.62,163.83 63.6,163.93 65.59,164.01C67.58,164.09 69.57,164.15 71.56,164.19C73.55,164.23 75.53,164.26 77.52,164.26C79.51,164.26 81.49,164.24 83.48,164.21C85.47,164.18 87.45,164.13 89.44,164.06C91.43,163.99 93.42,163.89 95.41,163.78C97.4,163.67 99.38,163.54 101.37,163.4C103.36,163.25 105.34,163.09 107.33,162.91C109.32,162.73 111.31,162.53 113.3,162.32C115.29,162.11 117.27,161.88 119.26,161.63C121.25,161.38 123.23,161.12 125.22,160.84C127.21,160.56 129.2,160.27 131.19,159.96C133.18,159.65 135.54,159.27 137.15,159C138.24,158.82 138.95,158.69 139.9,158.52C140.93,158.34 141.88,158.18 143.11,157.95C144.79,157.64 147.08,157.2 149.07,156.81C151.06,156.42 153.05,156.01 155.04,155.6C157.03,155.19 159.01,154.77 161,154.34C162.99,153.91 164.97,153.46 166.96,153.01C168.95,152.56 171.11,152.05 172.93,151.62C174.48,151.25 176.11,150.86 177.21,150.59C177.9,150.42 178.16,150.36 178.89,150.18C180.27,149.83 182.86,149.16 184.85,148.64C186.84,148.12 188.82,147.6 190.81,147.06C192.8,146.52 194.79,145.97 196.78,145.42C198.77,144.87 200.99,144.24 202.74,143.74C204.11,143.35 205.34,142.99 206.42,142.67C207.27,142.42 207.76,142.26 208.7,141.97C210.22,141.5 212.68,140.73 214.67,140.1C216.66,139.47 218.65,138.83 220.63,138.18C222.62,137.53 224.77,136.8 226.59,136.19C228.12,135.67 229.72,135.13 230.82,134.74C231.53,134.49 231.81,134.39 232.56,134.11C233.95,133.6 236.53,132.63 238.52,131.88C240.51,131.13 242.5,130.36 244.48,129.59C246.47,128.81 249.28,127.7 250.44,127.23C250.92,127.04 250.99,127.01 251.46,126.81C252.49,126.37 254.69,125.42 256.41,124.65C258.31,123.81 260.36,122.88 262.37,121.96C264.45,121.01 266.65,120.05 268.685,119.055C270.62,118.11 272.4,117.14 274.3,116.15C276.26,115.12 278.5,113.93 280.26,112.99C281.66,112.24 282.94,111.58 284.02,110.96C284.86,110.48 285.31,110.17 286.22,109.61C287.72,108.68 290.34,107.04 292.19,105.88C293.8,104.87 295.62,103.79 296.7,103.04C297.33,102.6 297.5,102.43 298.15,101.94C299.46,100.94 302.46,98.66 304.11,97.4C305.28,96.51 306.14,95.95 307.11,95.11C308.13,94.23 308.95,93.31 310.07,92.21C311.55,90.76 314.24,88.31 315.2,87.19C315.63,86.69 315.64,86.56 316.04,86.01C316.99,84.68 319.86,81.09 320.86,79.26Q321.47,78.15 322,76.39L322,428L0,428ZM322,53.47Q320.18,49.33 319.12,47.56C318.17,45.98 317.03,44.67 316.04,43.3C315.12,42.03 314.35,40.82 313.38,39.63C312.37,38.4 311.23,37.29 310.07,36.04C308.8,34.66 307.17,32.81 306.05,31.7C305.3,30.96 304.93,30.67 304.11,29.91C302.67,28.58 299.19,25.38 298.15,24.44C297.79,24.11 297.77,24.09 297.41,23.78C296.46,22.97 293.87,20.85 292.19,19.48C290.64,18.22 288.81,16.71 287.71,15.85C287.08,15.36 286.88,15.21 286.22,14.71C284.9,13.71 281.93,11.47 280.26,10.23C279.05,9.33 278.15,8.67 277.13,7.93C276.16,7.23 275.42,6.69 274.3,5.9C272.68,4.75 269.9,2.83 268.33,1.74Q267.31,1.03 265.79,0L322,0Z" style="stroke: none; fill: rgb(102, 102, 102);"/><path d="M0,176.56Q3.97,177.26 5.96,177.59C7.95,177.92 9.94,178.25 11.93,178.56C13.92,178.87 15.9,179.18 17.89,179.47C19.88,179.76 21.86,180.04 23.85,180.31C25.84,180.58 27.82,180.83 29.81,181.07C31.8,181.31 33.82,181.55 35.78,181.76C37.69,181.97 39.51,182.15 41.445,182.33C43.48,182.52 45.64,182.71 47.7,182.87C49.71,183.03 51.68,183.17 53.67,183.29C55.66,183.41 57.64,183.52 59.63,183.61C61.62,183.7 63.6,183.77 65.59,183.82C67.58,183.87 69.57,183.9 71.56,183.91C73.55,183.92 75.53,183.92 77.52,183.9C79.51,183.88 81.49,183.83 83.48,183.77C85.47,183.71 87.45,183.63 89.44,183.53C91.43,183.43 93.42,183.32 95.41,183.18C97.4,183.04 99.55,182.87 101.37,182.71C102.92,182.58 104.56,182.41 105.66,182.3C106.35,182.23 106.6,182.22 107.33,182.14C108.71,182 111.31,181.71 113.3,181.47C115.29,181.23 117.27,180.97 119.26,180.7C121.25,180.43 123.23,180.14 125.22,179.84C127.21,179.54 129.2,179.22 131.19,178.89C133.18,178.56 135.16,178.22 137.15,177.86C139.14,177.5 141.12,177.13 143.11,176.75C145.1,176.37 147.09,175.98 149.07,175.58C151.04,175.18 152.98,174.77 154.95,174.35000000000002C156.95,173.92 158.99,173.47 161,173.02C163,172.57 164.97,172.12 166.96,171.66C168.95,171.2 170.94,170.73 172.93,170.25C174.92,169.77 176.9,169.28 178.89,168.78C180.88,168.28 183.18,167.7 184.85,167.27C186.07,166.96 187,166.71 188.02,166.44C188.98,166.19 189.71,166 190.81,165.7C192.43,165.27 194.79,164.63 196.78,164.08C198.77,163.53 200.75,162.96 202.74,162.4C204.73,161.83 206.71,161.27 208.7,160.69C210.69,160.11 213.4,159.3 214.67,158.92C215.27,158.74 215.42,158.7 215.99,158.52C217.07,158.19 218.99,157.59 220.63,157.07C222.49,156.48 224.6,155.81 226.59,155.16C228.58,154.51 230.57,153.85 232.56,153.19C234.55,152.53 237.14,151.65 238.52,151.18C239.26,150.93 239.53,150.83 240.22,150.59C241.32,150.2 242.94,149.62 244.48,149.06C246.3,148.4 248.45,147.61 250.44,146.87C252.43,146.13 254.46,145.36 256.41,144.62C258.29,143.9 260.03,143.25 261.94,142.495C264,141.68 266.24,140.74 268.33,139.87C270.35,139.03 272.3,138.22 274.3,137.38C276.32,136.53 278.38,135.68 280.385,134.79500000000002C282.36,133.93 284.26,133.03 286.22,132.13C288.2,131.22 290.22,130.29 292.19,129.38C294.13,128.48 296,127.65 297.94,126.71000000000001C299.97,125.73 302.07,124.62 304.11,123.59C306.11,122.58 308.37,121.44 310.07,120.58C311.35,119.94 312.38,119.45 313.42,118.89C314.35,118.39 314.99,118.01 316.04,117.42Q317.62,116.53 322,114.09L322,428L0,428ZM322,6.73Q317.65,3.36 316.04,2.12Q314.94,1.28 313.26,0L322,0Z" style="stroke: none; fill: rgb(128, 128, 128);"/><path d="M147.32,428Q144.37,424.61 143.11,423.18C142.1,422.03 141.3,421.19 140.36,420.07C139.31,418.82 138.22,417.34 137.15,416.01C136.1,414.7 134.99,413.52 134.01,412.15C132.99,410.72 132.08,408.98 131.19,407.58C130.42,406.37 129.7,405.63 129.01,404.22C128.02,402.18 126.67,398.98 126.27,396.3C125.88,393.69 125.93,390.95 126.56,388.37C127.23,385.66 129.46,381.74 130.35,380.44C130.68,379.95 130.79,379.99 131.19,379.54C132.29,378.32 135.17,374.69 137.25,372.64C139.15,370.76 141.41,369.11 143.11,367.64C144.42,366.5 145.51,365.45 146.59,364.59C147.47,363.89 148.07,363.52 149.07,362.78C150.63,361.62 153.57,359.41 155.04,358.28C155.91,357.61 156.3,357.27 157.1,356.67C158.19,355.86 159.57,354.92 161,353.88C162.78,352.59 165.8,350.36 166.96,349.5C167.44,349.14 167.51,349.09 167.97,348.74C169,347.97 171.22,346.35 172.93,345.06C174.78,343.66 176.76,342.2 178.695,340.655C180.73,339.04 183.14,337 184.85,335.57C186.08,334.54 187.01,333.81 188.01,332.89C188.99,331.99 189.74,331.19 190.81,330.12C192.25,328.67 194.89,326.14 195.87,324.96C196.33,324.4 196.37,324.26 196.78,323.65C197.7,322.3 200.19,319.28 201.19,317.04C202.07,315.07 202.37,312.49 202.74,311.04C202.95,310.22 203.22,309.76 203.22,309.11C203.22,308.46 202.95,307.98 202.74,307.15C202.38,305.7 202.15,303.04 201.22,301.19C200.22,299.21 198,297.19 196.78,295.73C195.95,294.74 195.54,294.05 194.67,293.26C193.62,292.31 192.24,291.53 190.81,290.55C189.04,289.33 186.28,287.47 184.85,286.53C184.06,286.01 183.75,285.75 182.99,285.33C181.91,284.73 180.39,284.08 178.89,283.38C177.09,282.54 174.92,281.55 172.93,280.66C170.94,279.77 168.31,278.63 166.96,278.06C166.27,277.77 166.04,277.66 165.38,277.41C164.29,277 162.57,276.42 161,275.89C159.17,275.27 157.03,274.57 155.04,273.93C153.05,273.3 151.06,272.68 149.07,272.08C147.09,271.48 144.8,270.82 143.11,270.35C141.86,270 140.88,269.75 139.84,269.48C138.9,269.24 138.22,269.07 137.15,268.81C135.55,268.43 133.18,267.88 131.19,267.45C129.2,267.02 127.21,266.61 125.22,266.22C123.23,265.83 121.25,265.47 119.26,265.13C117.28,264.79 115.29,264.48 113.3,264.19C111.31,263.9 109.32,263.64 107.33,263.41C105.34,263.18 103.36,262.97 101.37,262.79C99.38,262.62 97.4,262.47 95.41,262.36C93.42,262.25 91.43,262.16 89.44,262.11C87.45,262.06 85.47,262.03 83.48,262.04C81.49,262.05 79.51,262.09 77.52,262.17C75.53,262.25 73.55,262.36 71.56,262.5C69.57,262.64 67.58,262.82 65.59,263.03C63.6,263.24 61.61,263.48 59.63,263.75C57.64,264.02 55.65,264.33 53.67,264.67C51.68,265.01 49.69,265.39 47.7,265.79C45.71,266.2 43.72,266.63 41.74,267.1C39.75,267.57 37.46,268.15 35.78,268.59C34.55,268.92 33.62,269.19 32.59,269.48C31.63,269.76 30.91,269.96 29.81,270.3C28.2,270.8 25.83,271.54 23.85,272.2C21.86,272.86 19.87,273.56 17.89,274.27C15.9,274.99 13.46,275.9 11.93,276.49C10.97,276.86 10.46,277.05 9.6,277.41C8.52,277.86 7.32,278.41 5.96,279.03Q4.21,279.83 0,281.81L0,198.07Q3.97,198.81 5.96,199.16C7.95,199.52 9.94,199.87 11.93,200.2C13.92,200.53 15.9,200.85 17.89,201.16C19.88,201.47 21.86,201.76 23.85,202.04C25.84,202.32 27.82,202.59 29.81,202.84C31.8,203.09 33.79,203.33 35.78,203.55C37.77,203.77 39.75,203.97 41.74,204.16C43.73,204.34 45.71,204.51 47.7,204.66C49.69,204.81 51.68,204.94 53.67,205.05C55.66,205.16 57.64,205.25 59.63,205.32C61.62,205.39 63.6,205.44 65.59,205.47C67.58,205.5 69.57,205.51 71.56,205.49C73.55,205.47 75.53,205.43 77.52,205.37C79.51,205.31 81.49,205.23 83.48,205.13C85.47,205.02 87.45,204.89 89.44,204.74C91.43,204.59 93.42,204.42 95.41,204.23C97.4,204.03 99.38,203.81 101.37,203.57C103.36,203.33 105.34,203.07 107.33,202.79C109.32,202.51 111.31,202.2 113.3,201.88C115.29,201.56 117.27,201.21 119.26,200.85C121.25,200.49 123.23,200.11 125.22,199.71C127.21,199.31 129.92,198.73 131.19,198.45C131.79,198.32 131.93,198.27 132.5,198.15C133.57,197.92 135.51,197.56 137.15,197.21C139.01,196.82 141.12,196.35 143.11,195.91C145.1,195.46 147.08,195.01 149.07,194.54C151.06,194.07 153.05,193.58 155.04,193.09C157.03,192.6 159.05,192.08 161,191.58C162.88,191.09 164.63,190.62 166.55,190.12C168.6,189.59 170.84,189.03 172.93,188.48C174.95,187.95 176.9,187.43 178.89,186.89C180.88,186.35 182.86,185.8 184.85,185.25C186.84,184.7 188.97,184.09 190.81,183.57C192.39,183.12 194.11,182.62 195.21,182.3C195.87,182.11 196.09,182.05 196.78,181.85C198.13,181.46 200.75,180.7 202.74,180.11C204.73,179.52 206.71,178.93 208.7,178.33C210.69,177.73 212.65,177.14 214.67,176.51C216.76,175.86 219,175.16 221.05,174.505C222.96,173.9 224.71,173.33 226.59,172.72C228.54,172.08 230.57,171.41 232.56,170.75C234.55,170.09 236.51,169.43 238.52,168.74C240.59,168.03 242.78,167.28 244.82,166.56C246.75,165.88 248.54,165.23 250.44,164.54C252.4,163.83 254.42,163.09 256.41,162.36C258.4,161.62 260.55,160.81 262.37,160.13C263.91,159.55 265.53,158.94 266.63,158.52C267.33,158.25 267.59,158.14 268.33,157.85C269.71,157.3 272.31,156.28 274.3,155.49C276.29,154.7 278.26,153.9 280.26,153.1C282.28,152.29 284.34,151.47 286.34000000000003,150.64C288.31,149.82 290.23,149 292.19,148.17C294.17,147.33 296.16,146.48 298.15,145.64C300.14,144.8 302.93,143.61 304.11,143.11C304.6,142.9 304.68,142.88 305.16,142.67C306.2,142.22 308.35,141.24 310.07,140.48C311.96,139.64 314.05,138.71 316.04,137.83Q318.03,136.95 322,135.21L322,428Z" style="stroke: none; fill: rgb(153, 153, 153);"/><path d="M221.6,428Q221.09,427.46 220.63,426.97C219.46,425.72 216.45,422.6 214.475,420.28499999999997C212.48,417.95 209.68,414.27 208.7,413.02C208.36,412.59 208.33,412.6 208.03,412.15C207.15,410.85 204.13,405.95 203.34,404.22C202.98,403.44 203,403.21 202.74,402.44C202.26,401.01 201.07,398.51 200.67,396.3C200.23,393.86 200.07,390.99 200.4,388.37C200.73,385.69 201.6,382.97 202.70499999999998,380.385C203.86,377.68 206.1,374.18 207.25,372.52C207.83,371.69 208.08,371.53 208.7,370.76C209.86,369.33 212.59,365.78 213.64,364.59C214.09,364.07 214.19,364.04 214.67,363.53C215.87,362.27 218.83,359.04 220.875,356.935C222.8,354.95 225.09,352.74 226.59,351.22C227.57,350.23 228.12,349.64 229,348.74C230.07,347.65 231.33,346.43 232.56,345.17C233.91,343.8 235.65,341.98 236.75,340.81C237.47,340.04 237.78,339.71 238.52,338.88C239.82,337.44 242.9,334.01 243.81,332.89C244.15,332.47 244.15,332.44 244.48,332C245.39,330.77 248.63,326.53 249.59,324.96C250.04,324.23 250.07,324.01 250.44,323.27C251.14,321.85 252.73,319.3 253.46,317.04C254.24,314.61 254.87,311.75 254.83,309.11C254.79,306.47 254.08,303.4 253.21,301.19C252.5,299.4 251.3,298.05 250.44,296.65C249.69,295.44 249.22,294.36 248.33,293.26C247.3,291.98 245.81,290.81 244.48,289.53C243.06,288.17 241.17,286.24 240.05,285.33C239.43,284.82 239.2,284.73 238.52,284.26C237.19,283.34 234.38,281.41 232.56,280.19C231.04,279.17 229.48,278.09 228.37,277.41C227.66,276.98 227.36,276.84 226.59,276.42C225.19,275.65 222.62,274.26 220.63,273.2C218.65,272.15 215.89,270.71 214.67,270.08C214.13,269.8 214.03,269.74 213.5,269.48C212.45,268.96 210.39,268.01 208.7,267.23C206.82,266.36 204.76,265.41 202.74,264.5C200.67,263.57 198.47,262.61 196.43,261.71000000000004C194.5,260.86 192.71,260.06 190.81,259.23C188.85,258.38 186.84,257.51 184.85,256.67C182.87,255.83 180.18,254.71 178.89,254.18C178.28,253.93 178.11,253.89 177.53,253.63C176.44,253.15 174.57,252.2 172.93,251.44C171.07,250.57 168.98,249.62 166.96,248.7C164.88,247.76 162.63,246.93 160.62,245.865C158.66,244.82 156.93,243.56 155.04,242.39C153.08,241.18 150.42,239.53 149.07,238.71C148.38,238.29 148.06,238.36 147.5,237.78C146.25,236.48 142.99,232.45 143.15,229.85C143.32,227.14 146.73,223.8 148.93,221.85500000000002C150.78,220.22 153.02,219.62 155.04,218.48C157.05,217.34 159.63,215.83 161,215.01C161.72,214.58 161.95,214.35 162.65,214C163.73,213.46 165.41,212.92 166.96,212.29C168.79,211.55 170.94,210.67 172.93,209.84C174.92,209.01 177.27,208.01 178.89,207.31C180.01,206.83 180.74,206.45 181.71,206.07C182.72,205.67 183.64,205.41 184.85,204.98C186.52,204.39 188.82,203.56 190.81,202.84C192.8,202.12 194.77,201.4 196.78,200.65C198.85,199.88 201.03,199.02 203.075,198.28C205,197.59 206.8,197 208.7,196.34C210.66,195.66 212.68,194.95 214.67,194.25C216.66,193.55 218.68,192.82 220.63,192.12C222.52,191.44 224.28,190.78 226.20499999999998,190.09C228.25,189.36 230.48,188.59 232.56,187.85C234.58,187.13 236.53,186.43 238.52,185.71C240.51,184.99 242.79,184.15 244.48,183.52C245.73,183.06 246.7,182.69 247.74,182.3C248.68,181.95 249.36,181.7 250.44,181.3C252.04,180.7 254.42,179.82 256.41,179.07C258.4,178.32 260.37,177.58 262.37,176.81C264.4,176.03 266.5,175.22 268.515,174.44C270.47,173.68 272.36,172.94 274.3,172.18C276.27,171.4 278.27,170.61 280.26,169.82C282.25,169.03 284.65,168.07 286.22,167.45C287.24,167.04 287.83,166.81 288.74,166.44C289.8,166.01 290.88,165.57 292.19,165.04C293.91,164.34 296.16,163.42 298.15,162.61C300.14,161.8 302.3,160.92 304.11,160.19C305.61,159.58 307.15,158.97 308.25,158.52C308.98,158.22 309.29,158.09 310.07,157.76C311.49,157.17 314.05,156.11 316.04,155.29Q318.03,154.47 322,152.85L322,428Z" style="stroke: none; fill: rgb(179, 179, 179);"/><path d="M282.62,428Q281.22,426.84 280.26,426.01C278.72,424.68 275.34,421.69 274.3,420.76C273.92,420.42 273.9,420.42 273.54,420.07C272.57,419.14 269.74,416.21 268.33,414.75C267.36,413.74 266.74,413.17 265.88,412.15C264.78,410.84 263.42,408.89 262.37,407.47C261.5,406.29 260.82,405.58 260.01,404.22C258.83,402.23 257.2,399.13 256.33500000000004,396.46000000000004C255.49,393.84 254.91,391.06 254.83,388.37C254.75,385.72 255.39,382.02 255.8,380.44C255.99,379.73 256.14,379.62 256.41,378.95C256.97,377.56 257.91,374.56 258.91,372.52C259.9,370.52 261.5,368.28 262.37,366.82C262.91,365.91 263.08,365.5 263.68,364.59C264.73,363 267.31,359.66 268.33,358.25C268.84,357.55 268.94,357.36 269.46,356.67C270.5,355.29 273.18,351.99 274.3,350.55C274.91,349.77 275.09,349.51 275.69,348.74C276.77,347.35 279.13,344.37 280.26,342.91C280.93,342.04 281.2,341.7 281.86,340.81C282.96,339.32 285.19,336.19 286.22,334.75C286.79,333.95 286.98,333.74 287.53,332.89C288.63,331.17 290.89,327.62 292.16999999999996,324.91499999999996C293.39,322.33 294.5,319.71 295.11,317.04C295.71,314.44 296.04,311.74 295.86,309.11C295.68,306.45 294.79,303.17 293.99,301.19C293.47,299.89 292.86,299.28 292.19,298.14C291.34,296.7 290.37,294.68 289.31,293.26C288.36,291.99 287.34,291.15 286.22,289.96C284.9,288.55 283.01,286.37 281.88,285.33C281.24,284.73 280.97,284.6 280.26,284.03C278.9,282.94 275.84,280.5 274.3,279.28C273.33,278.51 272.81,278.05 271.92,277.41C270.86,276.64 269.68,275.91 268.33,275.02C266.6,273.87 263.94,272.13 262.37,271.11C261.35,270.45 260.75,270.05 259.84,269.48C258.79,268.83 257.71,268.2 256.41,267.43C254.7,266.42 252.25,264.98 250.44,263.93C248.94,263.06 247.41,262.2 246.31,261.56C245.58,261.13 245.27,260.93 244.48,260.47C243.07,259.64 240.51,258.18 238.52,257.04C236.53,255.9 234.5,254.84 232.51999999999998,253.64999999999998C230.52,252.45 228.6,251.13 226.59,249.86C224.52,248.55 222.28,247.38 220.29,245.91C218.3,244.44 216.36,242.5 214.67,241.04C213.29,239.84 211.87,239.12 210.89,237.78C209.86,236.37 209.33,234.17 208.7,232.72C208.22,231.63 207.44,230.82 207.43,229.85C207.42,228.85 208.23,227.94 208.7,226.8C209.29,225.37 209.67,223.29 210.67,221.93C211.66,220.58 213.22,219.86 214.67,218.66C216.42,217.22 218.41,215.26 220.43,213.89C222.39,212.56 224.56,211.65 226.59,210.52C228.6,209.41 231.12,208 232.56,207.18C233.38,206.71 233.72,206.47 234.49,206.07C235.58,205.51 237.05,204.92 238.52,204.25C240.31,203.43 242.49,202.42 244.48,201.5C246.47,200.57 249.22,199.27 250.44,198.7C250.98,198.45 251.08,198.38 251.6,198.15C252.65,197.68 254.72,196.84 256.41,196.12C258.29,195.32 260.38,194.42 262.37,193.57C264.36,192.71 266.94,191.6 268.33,190.99C269.08,190.66 269.36,190.52 270.07,190.22C271.17,189.75 272.77,189.11 274.3,188.48C276.12,187.73 278.27,186.83 280.26,186C282.25,185.17 284.59,184.19 286.22,183.51C287.36,183.03 288.14,182.71 289.12,182.3C290.13,181.88 291,181.53 292.19,181.04C293.85,180.36 296.16,179.4 298.15,178.59C300.14,177.78 302.27,176.91 304.11,176.16C305.69,175.52 307.44,174.82 308.53,174.37C309.18,174.11 309.39,174.02 310.07,173.74C311.41,173.2 314.05,172.14 316.04,171.34Q318.03,170.55 322,168.97L322,428Z" style="stroke: none; fill: rgb(204, 204, 204);"/><path d="M322,413.11Q321.3,412.6 320.77,412.15C319.69,411.23 317.5,409.15 316.04,407.75C314.75,406.52 313.49,405.41 312.46,404.22C311.54,403.16 310.92,402.19 310.07,401.01C309.05,399.6 307.71,398.08 306.76,396.3C305.68,394.29 304.6,390.76 304.11,389.46C303.91,388.94 303.82,388.91 303.71,388.37C303.41,386.95 303.06,382.59 303.24,380.44C303.37,378.93 303.82,377.93 304.11,376.64C304.41,375.29 304.51,374.09 305.03,372.52C305.78,370.27 307.6,366.47 308.58,364.59C309.15,363.5 309.48,363.09 310.07,362.1C310.94,360.64 312.23,358.34 313.28,356.67C314.21,355.19 315.14,353.89 316.04,352.54C316.9,351.25 317.64,350.1 318.55,348.74Q319.6,347.16 322,343.65ZM322,287.92Q320.41,286.17 319.47,285.33C318.44,284.41 317.35,283.68 316.04,282.65C314.26,281.25 311.83,279.18 309.765,277.655C307.86,276.24 306.03,275.08 304.11,273.76C302.12,272.39 300.04,270.91 298.025,269.565C296.07,268.26 294.17,267.08 292.19,265.81C290.13,264.49 287.94,263.09 285.9,261.765C283.97,260.51 282.2,259.32 280.26,258.05C278.21,256.7 275.93,255.31 273.905,253.885C271.96,252.52 270.19,251.12 268.33,249.71C266.45,248.28 264.54,247.06 262.67,245.375C260.56,243.47 257.56,239.93 256.41,238.72C255.97,238.26 255.82,238.3 255.5,237.78C254.68,236.46 252.66,232.5 252.63,229.85C252.6,227.21 254.41,223.32 255.28,221.93C255.66,221.33 255.89,221.34 256.41,220.83C257.62,219.64 261.26,216.01 262.37,214.9C262.8,214.47 262.82,214.36 263.27,214C264.25,213.21 266.57,211.88 268.33,210.75C270.24,209.52 273.06,207.7 274.3,206.89C274.87,206.52 274.98,206.4 275.54,206.07C276.6,205.45 278.6,204.5 280.26,203.64C282.13,202.67 284.36,201.51 286.22,200.55C287.86,199.7 289.77,198.68 290.85,198.15C291.43,197.87 291.58,197.82 292.19,197.54C293.47,196.96 296.16,195.72 298.15,194.81C300.14,193.91 302.3,192.93 304.11,192.11C305.63,191.42 307.2,190.7 308.3,190.22C309.01,189.91 309.31,189.79 310.07,189.47C311.47,188.88 314.05,187.8 316.04,186.97Q318.03,186.14 322,184.5Z" style="stroke: none; fill: rgb(230, 230, 230);"/><path d="M322,261.65Q318.04,259.08 316.04,257.77C314.01,256.44 311.91,255.16 309.91999999999996,253.73000000000002C307.93,252.3 305.92,250.62 304.11,249.21C302.52,247.97 300.7,246.7 299.64,245.7C298.97,245.07 298.8,244.74 298.15,244C296.9,242.58 293.51,239.23 292.69,237.78C292.33,237.14 292.41,236.92 292.19,236.22C291.74,234.81 290.12,231.99 290.11,229.85C290.1,227.7 291.75,224.73 292.19,223.35C292.4,222.71 292.3,222.51 292.64,221.93C293.44,220.59 296.75,217.63 298.15,216.17C299.01,215.27 299.39,214.71 300.24,214C301.29,213.12 302.68,212.38 304.11,211.43C305.88,210.26 308.57,208.48 310.07,207.5C310.98,206.9 311.42,206.56 312.27,206.07C313.35,205.45 314.64,204.85 316.04,204.13Q317.8,203.23 322,201.11Z" style="stroke: none; fill: rgb(255, 255, 255);"/></g><g class="contourlines" clip-path="url(#clipline0e42db)"><g class="contourlevel"><path class="closedline" d="M41.33,87.295C43.37,87.88 45.61,88.35 47.7,88.81C49.72,89.26 51.68,89.66 53.67,90.04C55.65,90.41 57.64,90.75 59.63,91.06C61.61,91.37 63.6,91.64 65.59,91.88C67.58,92.12 69.57,92.31 71.56,92.48C73.55,92.64 75.53,92.78 77.52,92.87C79.51,92.96 81.49,93.01 83.48,93.02C85.47,93.03 87.45,93.01 89.44,92.95C91.43,92.89 93.42,92.78 95.41,92.64C97.4,92.5 99.39,92.33 101.37,92.11C103.36,91.89 105.34,91.63 107.33,91.34C109.32,91.05 111.31,90.72 113.3,90.36C115.29,89.99 117.28,89.59 119.26,89.15C121.25,88.71 123.76,88.1 125.22,87.73C126.07,87.51 126.45,87.44 127.22,87.19C128.33,86.84 129.74,86.29 131.19,85.73C132.98,85.03 135.17,84.14 137.15,83.28C139.15,82.41 141.53,81.3 143.11,80.55C144.16,80.05 144.82,79.83 145.71,79.26C146.79,78.57 147.8,77.62 149.07,76.56C150.79,75.12 153.53,73.48 155.04500000000002,71.34C156.61,69.12 158,66.08 158.19,63.41C158.38,60.8 157.07,57.05 156.29,55.48C155.91,54.71 155.61,54.63 155.04,53.95C153.83,52.52 151.4,49.22 149.32999999999998,47.375C147.4,45.66 145.15,44.47 143.11,43.13C141.18,41.86 139.38,40.57 137.39499999999998,39.510000000000005C135.41,38.45 133.25,37.62 131.19,36.75C129.19,35.9 127.22,35.1 125.22,34.33C123.24,33.56 120.53,32.57 119.26,32.13C118.67,31.92 118.53,31.87 117.96,31.7C116.89,31.38 114.95,30.86 113.3,30.45C111.44,29.98 109.32,29.49 107.33,29.06C105.35,28.63 103.36,28.24 101.37,27.88C99.39,27.53 97.4,27.21 95.41,26.93C93.42,26.65 91.43,26.41 89.44,26.2C87.45,26 85.47,25.83 83.48,25.7C81.49,25.57 79.51,25.49 77.52,25.44C75.53,25.39 73.55,25.38 71.56,25.41C69.57,25.44 67.58,25.52 65.59,25.63C63.6,25.75 61.61,25.9 59.63,26.1C57.64,26.3 55.65,26.53 53.67,26.81C51.68,27.09 49.69,27.41 47.7,27.77C45.71,28.13 43.72,28.53 41.74,28.97C39.75,29.41 37.62,29.94 35.78,30.43C34.18,30.85 32.41,31.34 31.32,31.7C30.68,31.91 30.48,32 29.81,32.26C28.48,32.79 25.83,33.88 23.85,34.76C21.85,35.65 19.65,36.71 17.89,37.6C16.47,38.32 15.13,38.93 14.07,39.63C13.22,40.19 12.81,40.6 11.93,41.34C10.43,42.61 7.09,45.59 5.96,46.64C5.5,47.07 5.37,47.05 5.01,47.56C4.1,48.87 1.83,52.79 1.48,55.48C1.14,58.07 1.82,61.27 2.74,63.41C3.49,65.16 4.91,66.29 5.96,67.65C6.94,68.92 7.79,70.32 8.85,71.33C9.8,72.23 10.73,72.67 11.93,73.5C13.59,74.64 16.28,76.46 17.89,77.52C18.97,78.23 19.64,78.74 20.61,79.26C21.62,79.8 22.6,80.16 23.85,80.69C25.53,81.41 27.82,82.36 29.81,83.15C31.79,83.93 33.82,84.71 35.78,85.41C37.66,86.08 39.4,86.74 41.33,87.295Z" style="stroke-miterlimit: 1; vector-effect: non-scaling-stroke; fill: none; stroke: rgb(0, 0, 0); stroke-opacity: 1; stroke-width: 0.5px;"/></g><g class="contourlevel"><path class="openline" d="M0,109.04Q4.19,110.32 6.225,110.88499999999999C8.16,111.42 10.01,111.87 11.93,112.35C13.89,112.84 15.9,113.33 17.89,113.79C19.87,114.25 21.86,114.7 23.85,115.13C25.84,115.56 27.82,115.98 29.81,116.38C31.8,116.78 33.79,117.16 35.78,117.52C37.77,117.88 40.23,118.3 41.74,118.55C42.66,118.7 43.14,118.77 43.98,118.89C45.06,119.05 46.31,119.23 47.7,119.41C49.45,119.64 51.68,119.92 53.67,120.14C55.66,120.36 57.64,120.56 59.63,120.74C61.62,120.92 63.6,121.08 65.59,121.22C67.58,121.36 69.57,121.47 71.56,121.56C73.55,121.65 75.53,121.73 77.52,121.78C79.51,121.83 81.49,121.86 83.48,121.86C85.47,121.86 87.45,121.84 89.44,121.8C91.43,121.76 93.42,121.7 95.41,121.61C97.4,121.53 99.38,121.42 101.37,121.29C103.36,121.16 105.34,121 107.33,120.83C109.32,120.66 111.31,120.46 113.3,120.25C115.29,120.04 117.38,119.79 119.26,119.55C120.95,119.33 123.02,119.04 124.07,118.89C124.59,118.82 124.69,118.8 125.22,118.72C126.43,118.53 129.2,118.06 131.19,117.7C133.18,117.34 135.17,116.97 137.15,116.58C139.14,116.19 141.13,115.77 143.11,115.34C145.1,114.91 147.08,114.46 149.07,114C151.06,113.54 153.04,113.06 155.04,112.56C157.06,112.06 159.12,111.56 161.125,110.995C163.1,110.44 165.01,109.83 166.96,109.22C168.94,108.6 170.94,107.95 172.93,107.3C174.92,106.64 176.89,105.98 178.89,105.29C180.93,104.59 183.06,103.9 185.065,103.11500000000001C187.03,102.35 188.88,101.49 190.81,100.64C192.78,99.77 194.79,98.87 196.78,97.95C198.78,97.03 200.81,96.19 202.77,95.125C204.78,94.03 206.7,92.73 208.7,91.47C210.78,90.16 213.03,88.94 215.005,87.41C217,85.86 219.05,83.72 220.63,82.22C221.8,81.11 222.72,80.45 223.65,79.26C224.74,77.87 225.76,75.7 226.59,74.25C227.22,73.15 227.8,72.59 228.23,71.33C228.9,69.38 229.52,66.04 229.39,63.41C229.26,60.76 228.08,57.02 227.44,55.48C227.15,54.79 226.98,54.71 226.59,54.07C225.75,52.69 223.77,49.1 222.6,47.56C221.88,46.61 221.46,46.32 220.63,45.43C219.22,43.93 216.91,41.28 214.89999999999998,39.44C212.93,37.64 210.49,35.91 208.7,34.5C207.34,33.43 206.2,32.48 205.11,31.7C204.25,31.09 203.71,30.78 202.74,30.15C201.21,29.16 198.59,27.49 196.78,26.35C195.27,25.4 193.73,24.43 192.62,23.78C191.9,23.36 191.59,23.2 190.81,22.78C189.4,22.02 186.84,20.65 184.85,19.61C182.87,18.57 180.19,17.21 178.89,16.55C178.26,16.23 178.09,16.14 177.48,15.85C176.4,15.34 174.55,14.5 172.93,13.78C171.08,12.96 168.95,12.04 166.96,11.19C164.98,10.35 162.45,9.3 161,8.71C160.16,8.37 159.8,8.23 159.02,7.93C157.92,7.51 156.5,6.97 155.04,6.44C153.25,5.79 151.06,5.02 149.07,4.34C147.09,3.66 145.1,3.01 143.11,2.37C141.13,1.74 138.57,0.95 137.15,0.53Q136.36,0.29 135.3,0" style="stroke-miterlimit: 1; vector-effect: non-scaling-stroke; fill: none; stroke: rgb(0, 0, 0); stroke-opacity: 1; stroke-width: 0.5px;"/></g><g class="contourlevel"><path class="openline" d="M0,133.93Q2.53,134.5 3.6,134.74C4.47,134.93 4.99,135.05 5.96,135.25C7.5,135.57 9.94,136.08 11.93,136.48C13.92,136.88 15.9,137.27 17.89,137.64C19.88,138.01 21.86,138.36 23.85,138.71C25.84,139.05 27.82,139.39 29.81,139.71C31.8,140.03 33.79,140.32 35.78,140.61C37.77,140.9 39.75,141.17 41.74,141.43C43.73,141.68 45.74,141.92 47.7,142.14C49.59,142.35 51.37,142.53 53.295,142.70499999999998C55.34,142.89 57.55,143.07 59.63,143.22C61.65,143.36 63.6,143.49 65.59,143.59C67.58,143.7 69.57,143.78 71.56,143.85C73.55,143.92 75.53,143.96 77.52,143.99C79.51,144.02 81.49,144.02 83.48,144.01C85.47,144 87.45,143.97 89.44,143.92C91.43,143.87 93.42,143.79 95.41,143.7C97.4,143.61 99.38,143.5 101.37,143.37C103.36,143.24 105.7,143.06 107.33,142.93C108.46,142.84 109.23,142.76 110.21,142.67C111.22,142.58 112.1,142.5 113.3,142.37C114.96,142.19 117.27,141.93 119.26,141.69C121.25,141.45 123.23,141.19 125.22,140.91C127.21,140.63 129.2,140.34 131.19,140.03C133.18,139.72 135.16,139.4 137.15,139.06C139.14,138.72 141.12,138.37 143.11,138C145.1,137.63 147.08,137.25 149.07,136.86C151.06,136.47 153.23,136.02 155.04,135.64C156.56,135.32 158.12,134.98 159.22,134.74C159.94,134.58 160.23,134.52 161,134.34C162.4,134.01 164.97,133.4 166.96,132.92C168.95,132.43 170.94,131.94 172.93,131.43C174.92,130.92 176.9,130.41 178.89,129.88C180.88,129.35 182.9,128.81 184.85,128.27C186.74,127.75 188.51,127.26 190.42000000000002,126.695C192.47,126.09 194.7,125.38 196.78,124.72C198.8,124.08 200.76,123.45 202.74,122.8C204.73,122.15 206.73,121.47 208.7,120.8C210.64,120.14 212.51,119.53 214.45499999999998,118.81C216.48,118.06 218.59,117.2 220.63,116.38C222.64,115.57 224.6,114.76 226.59,113.94C228.58,113.11 231.38,111.94 232.56,111.43C233.06,111.21 233.14,111.18 233.62,110.96C234.66,110.47 236.81,109.39 238.52,108.53C240.41,107.57 242.63,106.44 244.48,105.47C246.11,104.62 248,103.66 249.07,103.04C249.67,102.69 249.82,102.57 250.44,102.17C251.73,101.34 254.54,99.52 256.41,98.28C258.08,97.18 260.08,95.91 261.13,95.11C261.69,94.68 261.8,94.54 262.37,94.05C263.62,92.97 266.92,90.06 268.33,88.81C269.11,88.12 269.45,87.93 270.14,87.19C271.29,85.96 273.17,83.3 274.3,81.84C275.08,80.83 275.59,80.41 276.26,79.26C277.34,77.39 278.94,74.03 279.61,71.33C280.25,68.74 280.47,66.04 280.28,63.41C280.09,60.75 279.38,58.06 278.42,55.48C277.42,52.78 275.94,50.12 274.28999999999996,47.57C272.56,44.89 270.27,42.15 268.19,39.81C266.29,37.68 263.89,35.53 262.37,34.04C261.39,33.08 260.85,32.5 259.95,31.7C258.9,30.76 257.75,29.88 256.41,28.78C254.66,27.35 252.36,25.41 250.325,23.87C248.38,22.39 246.43,21.07 244.48,19.7C242.56,18.35 240.69,17.02 238.72500000000002,15.715C236.72,14.39 234.62,13.09 232.56,11.81C230.51,10.53 228.43,9.24 226.405,8.04C224.46,6.89 222.57,5.83 220.63,4.73C218.66,3.62 216.26,2.3 214.67,1.43Q213.61,0.85 212.01,0" style="stroke-miterlimit: 1; vector-effect: non-scaling-stroke; fill: none; stroke: rgb(0, 0, 0); stroke-opacity: 1; stroke-width: 0.5px;"/></g><g class="contourlevel"><path class="openline" d="M0,155.71Q3.97,156.49 5.96,156.86C7.95,157.23 10.24,157.65 11.93,157.95C13.19,158.17 14.17,158.34 15.21,158.52C16.15,158.68 16.82,158.8 17.89,158.97C19.48,159.23 21.86,159.61 23.85,159.91C25.84,160.21 27.82,160.5 29.81,160.77C31.8,161.04 33.79,161.3 35.78,161.54C37.77,161.78 39.75,162.01 41.74,162.23C43.73,162.44 45.71,162.65 47.7,162.83C49.69,163.01 51.68,163.17 53.67,163.32C55.66,163.47 57.64,163.6 59.63,163.72C61.62,163.83 63.6,163.93 65.59,164.01C67.58,164.09 69.57,164.15 71.56,164.19C73.55,164.23 75.53,164.26 77.52,164.26C79.51,164.26 81.49,164.24 83.48,164.21C85.47,164.18 87.45,164.13 89.44,164.06C91.43,163.99 93.42,163.89 95.41,163.78C97.4,163.67 99.38,163.54 101.37,163.4C103.36,163.25 105.34,163.09 107.33,162.91C109.32,162.73 111.31,162.53 113.3,162.32C115.29,162.11 117.27,161.88 119.26,161.63C121.25,161.38 123.23,161.12 125.22,160.84C127.21,160.56 129.2,160.27 131.19,159.96C133.18,159.65 135.54,159.27 137.15,159C138.24,158.82 138.95,158.69 139.9,158.52C140.93,158.34 141.88,158.18 143.11,157.95C144.79,157.64 147.08,157.2 149.07,156.81C151.06,156.42 153.05,156.01 155.04,155.6C157.03,155.19 159.01,154.77 161,154.34C162.99,153.91 164.97,153.46 166.96,153.01C168.95,152.56 171.11,152.05 172.93,151.62C174.48,151.25 176.11,150.86 177.21,150.59C177.9,150.42 178.16,150.36 178.89,150.18C180.27,149.83 182.86,149.16 184.85,148.64C186.84,148.12 188.82,147.6 190.81,147.06C192.8,146.52 194.79,145.97 196.78,145.42C198.77,144.87 200.99,144.24 202.74,143.74C204.11,143.35 205.34,142.99 206.42,142.67C207.27,142.42 207.76,142.26 208.7,141.97C210.22,141.5 212.68,140.73 214.67,140.1C216.66,139.47 218.65,138.83 220.63,138.18C222.62,137.53 224.77,136.8 226.59,136.19C228.12,135.67 229.72,135.13 230.82,134.74C231.53,134.49 231.81,134.39 232.56,134.11C233.95,133.6 236.53,132.63 238.52,131.88C240.51,131.13 242.5,130.36 244.48,129.59C246.47,128.81 249.28,127.7 250.44,127.23C250.92,127.04 250.99,127.01 251.46,126.81C252.49,126.37 254.69,125.42 256.41,124.65C258.31,123.81 260.36,122.88 262.37,121.96C264.45,121.01 266.65,120.05 268.685,119.055C270.62,118.11 272.4,117.14 274.3,116.15C276.26,115.12 278.5,113.93 280.26,112.99C281.66,112.24 282.94,111.58 284.02,110.96C284.86,110.48 285.31,110.17 286.22,109.61C287.72,108.68 290.34,107.04 292.19,105.88C293.8,104.87 295.62,103.79 296.7,103.04C297.33,102.6 297.5,102.43 298.15,101.94C299.46,100.94 302.46,98.66 304.11,97.4C305.28,96.51 306.14,95.95 307.11,95.11C308.13,94.23 308.95,93.31 310.07,92.21C311.55,90.76 314.24,88.31 315.2,87.19C315.63,86.69 315.64,86.56 316.04,86.01C316.99,84.68 319.86,81.09 320.86,79.26Q321.47,78.15 322,76.39" style="stroke-miterlimit: 1; vector-effect: non-scaling-stroke; fill: none; stroke: rgb(0, 0, 0); stroke-opacity: 1; stroke-width: 0.5px;"/><path class="openline" d="M322,53.47Q320.18,49.33 319.12,47.56C318.17,45.98 317.03,44.67 316.04,43.3C315.12,42.03 314.35,40.82 313.38,39.63C312.37,38.4 311.23,37.29 310.07,36.04C308.8,34.66 307.17,32.81 306.05,31.7C305.3,30.96 304.93,30.67 304.11,29.91C302.67,28.58 299.19,25.38 298.15,24.44C297.79,24.11 297.77,24.09 297.41,23.78C296.46,22.97 293.87,20.85 292.19,19.48C290.64,18.22 288.81,16.71 287.71,15.85C287.08,15.36 286.88,15.21 286.22,14.71C284.9,13.71 281.93,11.47 280.26,10.23C279.05,9.33 278.15,8.67 277.13,7.93C276.16,7.23 275.42,6.69 274.3,5.9C272.68,4.75 269.9,2.83 268.33,1.74Q267.31,1.03 265.79,0" style="stroke-miterlimit: 1; vector-effect: non-scaling-stroke; fill: none; stroke: rgb(0, 0, 0); stroke-opacity: 1; stroke-width: 0.5px;"/></g><g class="contourlevel"><path class="openline" d="M0,176.56Q3.97,177.26 5.96,177.59C7.95,177.92 9.94,178.25 11.93,178.56C13.92,178.87 15.9,179.18 17.89,179.47C19.88,179.76 21.86,180.04 23.85,180.31C25.84,180.58 27.82,180.83 29.81,181.07C31.8,181.31 33.82,181.55 35.78,181.76C37.69,181.97 39.51,182.15 41.445,182.33C43.48,182.52 45.64,182.71 47.7,182.87C49.71,183.03 51.68,183.17 53.67,183.29C55.66,183.41 57.64,183.52 59.63,183.61C61.62,183.7 63.6,183.77 65.59,183.82C67.58,183.87 69.57,183.9 71.56,183.91C73.55,183.92 75.53,183.92 77.52,183.9C79.51,183.88 81.49,183.83 83.48,183.77C85.47,183.71 87.45,183.63 89.44,183.53C91.43,183.43 93.42,183.32 95.41,183.18C97.4,183.04 99.55,182.87 101.37,182.71C102.92,182.58 104.56,182.41 105.66,182.3C106.35,182.23 106.6,182.22 107.33,182.14C108.71,182 111.31,181.71 113.3,181.47C115.29,181.23 117.27,180.97 119.26,180.7C121.25,180.43 123.23,180.14 125.22,179.84C127.21,179.54 129.2,179.22 131.19,178.89C133.18,178.56 135.16,178.22 137.15,177.86C139.14,177.5 141.12,177.13 143.11,176.75C145.1,176.37 147.09,175.98 149.07,175.58C151.04,175.18 152.98,174.77 154.95,174.35000000000002C156.95,173.92 158.99,173.47 161,173.02C163,172.57 164.97,172.12 166.96,171.66C168.95,171.2 170.94,170.73 172.93,170.25C174.92,169.77 176.9,169.28 178.89,168.78C180.88,168.28 183.18,167.7 184.85,167.27C186.07,166.96 187,166.71 188.02,166.44C188.98,166.19 189.71,166 190.81,165.7C192.43,165.27 194.79,164.63 196.78,164.08C198.77,163.53 200.75,162.96 202.74,162.4C204.73,161.83 206.71,161.27 208.7,160.69C210.69,160.11 213.4,159.3 214.67,158.92C215.27,158.74 215.42,158.7 215.99,158.52C217.07,158.19 218.99,157.59 220.63,157.07C222.49,156.48 224.6,155.81 226.59,155.16C228.58,154.51 230.57,153.85 232.56,153.19C234.55,152.53 237.14,151.65 238.52,151.18C239.26,150.93 239.53,150.83 240.22,150.59C241.32,150.2 242.94,149.62 244.48,149.06C246.3,148.4 248.45,147.61 250.44,146.87C252.43,146.13 254.46,145.36 256.41,144.62C258.29,143.9 260.03,143.25 261.94,142.495C264,141.68 266.24,140.74 268.33,139.87C270.35,139.03 272.3,138.22 274.3,137.38C276.32,136.53 278.38,135.68 280.385,134.79500000000002C282.36,133.93 284.26,133.03 286.22,132.13C288.2,131.22 290.22,130.29 292.19,129.38C294.13,128.48 296,127.65 297.94,126.71000000000001C299.97,125.73 302.07,124.62 304.11,123.59C306.11,122.58 308.37,121.44 310.07,120.58C311.35,119.94 312.38,119.45 313.42,118.89C314.35,118.39 314.99,118.01 316.04,117.42Q317.62,116.53 322,114.09" style="stroke-miterlimit: 1; vector-effect: non-scaling-stroke; fill: none; stroke: rgb(0, 0, 0); stroke-opacity: 1; stroke-width: 0.5px;"/><path class="openline" d="M322,6.73Q317.65,3.36 316.04,2.12Q314.94,1.28 313.26,0" style="stroke-miterlimit: 1; vector-effect: non-scaling-stroke; fill: none; stroke: rgb(0, 0, 0); stroke-opacity: 1; stroke-width: 0.5px;"/></g><g class="contourlevel"><path class="openline" d="M147.32,428Q144.37,424.61 143.11,423.18C142.1,422.03 141.3,421.19 140.36,420.07C139.31,418.82 138.22,417.34 137.15,416.01C136.1,414.7 134.99,413.52 134.01,412.15C132.99,410.72 132.08,408.98 131.19,407.58C130.42,406.37 129.7,405.63 129.01,404.22C128.02,402.18 126.67,398.98 126.27,396.3C125.88,393.69 125.93,390.95 126.56,388.37C127.23,385.66 129.46,381.74 130.35,380.44C130.68,379.95 130.79,379.99 131.19,379.54C132.29,378.32 135.17,374.69 137.25,372.64C139.15,370.76 141.41,369.11 143.11,367.64C144.42,366.5 145.51,365.45 146.59,364.59C147.47,363.89 148.07,363.52 149.07,362.78C150.63,361.62 153.57,359.41 155.04,358.28C155.91,357.61 156.3,357.27 157.1,356.67C158.19,355.86 159.57,354.92 161,353.88C162.78,352.59 165.8,350.36 166.96,349.5C167.44,349.14 167.51,349.09 167.97,348.74C169,347.97 171.22,346.35 172.93,345.06C174.78,343.66 176.76,342.2 178.695,340.655C180.73,339.04 183.14,337 184.85,335.57C186.08,334.54 187.01,333.81 188.01,332.89C188.99,331.99 189.74,331.19 190.81,330.12C192.25,328.67 194.89,326.14 195.87,324.96C196.33,324.4 196.37,324.26 196.78,323.65C197.7,322.3 200.19,319.28 201.19,317.04C202.07,315.07 202.37,312.49 202.74,311.04C202.95,310.22 203.22,309.76 203.22,309.11C203.22,308.46 202.95,307.98 202.74,307.15C202.38,305.7 202.15,303.04 201.22,301.19C200.22,299.21 198,297.19 196.78,295.73C195.95,294.74 195.54,294.05 194.67,293.26C193.62,292.31 192.24,291.53 190.81,290.55C189.04,289.33 186.28,287.47 184.85,286.53C184.06,286.01 183.75,285.75 182.99,285.33C181.91,284.73 180.39,284.08 178.89,283.38C177.09,282.54 174.92,281.55 172.93,280.66C170.94,279.77 168.31,278.63 166.96,278.06C166.27,277.77 166.04,277.66 165.38,277.41C164.29,277 162.57,276.42 161,275.89C159.17,275.27 157.03,274.57 155.04,273.93C153.05,273.3 151.06,272.68 149.07,272.08C147.09,271.48 144.8,270.82 143.11,270.35C141.86,270 140.88,269.75 139.84,269.48C138.9,269.24 138.22,269.07 137.15,268.81C135.55,268.43 133.18,267.88 131.19,267.45C129.2,267.02 127.21,266.61 125.22,266.22C123.23,265.83 121.25,265.47 119.26,265.13C117.28,264.79 115.29,264.48 113.3,264.19C111.31,263.9 109.32,263.64 107.33,263.41C105.34,263.18 103.36,262.97 101.37,262.79C99.38,262.62 97.4,262.47 95.41,262.36C93.42,262.25 91.43,262.16 89.44,262.11C87.45,262.06 85.47,262.03 83.48,262.04C81.49,262.05 79.51,262.09 77.52,262.17C75.53,262.25 73.55,262.36 71.56,262.5C69.57,262.64 67.58,262.82 65.59,263.03C63.6,263.24 61.61,263.48 59.63,263.75C57.64,264.02 55.65,264.33 53.67,264.67C51.68,265.01 49.69,265.39 47.7,265.79C45.71,266.2 43.72,266.63 41.74,267.1C39.75,267.57 37.46,268.15 35.78,268.59C34.55,268.92 33.62,269.19 32.59,269.48C31.63,269.76 30.91,269.96 29.81,270.3C28.2,270.8 25.83,271.54 23.85,272.2C21.86,272.86 19.87,273.56 17.89,274.27C15.9,274.99 13.46,275.9 11.93,276.49C10.97,276.86 10.46,277.05 9.6,277.41C8.52,277.86 7.32,278.41 5.96,279.03Q4.21,279.83 0,281.81" style="stroke-miterlimit: 1; vector-effect: non-scaling-stroke; fill: none; stroke: rgb(0, 0, 0); stroke-opacity: 1; stroke-width: 0.5px;"/><path class="openline" d="M0,198.07Q3.97,198.81 5.96,199.16C7.95,199.52 9.94,199.87 11.93,200.2C13.92,200.53 15.9,200.85 17.89,201.16C19.88,201.47 21.86,201.76 23.85,202.04C25.84,202.32 27.82,202.59 29.81,202.84C31.8,203.09 33.79,203.33 35.78,203.55C37.77,203.77 39.75,203.97 41.74,204.16C43.73,204.34 45.71,204.51 47.7,204.66C49.69,204.81 51.68,204.94 53.67,205.05C55.66,205.16 57.64,205.25 59.63,205.32C61.62,205.39 63.6,205.44 65.59,205.47C67.58,205.5 69.57,205.51 71.56,205.49C73.55,205.47 75.53,205.43 77.52,205.37C79.51,205.31 81.49,205.23 83.48,205.13C85.47,205.02 87.45,204.89 89.44,204.74C91.43,204.59 93.42,204.42 95.41,204.23C97.4,204.03 99.38,203.81 101.37,203.57C103.36,203.33 105.34,203.07 107.33,202.79C109.32,202.51 111.31,202.2 113.3,201.88C115.29,201.56 117.27,201.21 119.26,200.85C121.25,200.49 123.23,200.11 125.22,199.71C127.21,199.31 129.92,198.73 131.19,198.45C131.79,198.32 131.93,198.27 132.5,198.15C133.57,197.92 135.51,197.56 137.15,197.21C139.01,196.82 141.12,196.35 143.11,195.91C145.1,195.46 147.08,195.01 149.07,194.54C151.06,194.07 153.05,193.58 155.04,193.09C157.03,192.6 159.05,192.08 161,191.58C162.88,191.09 164.63,190.62 166.55,190.12C168.6,189.59 170.84,189.03 172.93,188.48C174.95,187.95 176.9,187.43 178.89,186.89C180.88,186.35 182.86,185.8 184.85,185.25C186.84,184.7 188.97,184.09 190.81,183.57C192.39,183.12 194.11,182.62 195.21,182.3C195.87,182.11 196.09,182.05 196.78,181.85C198.13,181.46 200.75,180.7 202.74,180.11C204.73,179.52 206.71,178.93 208.7,178.33C210.69,177.73 212.65,177.14 214.67,176.51C216.76,175.86 219,175.16 221.05,174.505C222.96,173.9 224.71,173.33 226.59,172.72C228.54,172.08 230.57,171.41 232.56,170.75C234.55,170.09 236.51,169.43 238.52,168.74C240.59,168.03 242.78,167.28 244.82,166.56C246.75,165.88 248.54,165.23 250.44,164.54C252.4,163.83 254.42,163.09 256.41,162.36C258.4,161.62 260.55,160.81 262.37,160.13C263.91,159.55 265.53,158.94 266.63,158.52C267.33,158.25 267.59,158.14 268.33,157.85C269.71,157.3 272.31,156.28 274.3,155.49C276.29,154.7 278.26,153.9 280.26,153.1C282.28,152.29 284.34,151.47 286.34000000000003,150.64C288.31,149.82 290.23,149 292.19,148.17C294.17,147.33 296.16,146.48 298.15,145.64C300.14,144.8 302.93,143.61 304.11,143.11C304.6,142.9 304.68,142.88 305.16,142.67C306.2,142.22 308.35,141.24 310.07,140.48C311.96,139.64 314.05,138.71 316.04,137.83Q318.03,136.95 322,135.21" style="stroke-miterlimit: 1; vector-effect: non-scaling-stroke; fill: none; stroke: rgb(0, 0, 0); stroke-opacity: 1; stroke-width: 0.5px;"/></g><g class="contourlevel"><path class="openline" d="M221.6,428Q221.09,427.46 220.63,426.97C219.46,425.72 216.45,422.6 214.475,420.28499999999997C212.48,417.95 209.68,414.27 208.7,413.02C208.36,412.59 208.33,412.6 208.03,412.15C207.15,410.85 204.13,405.95 203.34,404.22C202.98,403.44 203,403.21 202.74,402.44C202.26,401.01 201.07,398.51 200.67,396.3C200.23,393.86 200.07,390.99 200.4,388.37C200.73,385.69 201.6,382.97 202.70499999999998,380.385C203.86,377.68 206.1,374.18 207.25,372.52C207.83,371.69 208.08,371.53 208.7,370.76C209.86,369.33 212.59,365.78 213.64,364.59C214.09,364.07 214.19,364.04 214.67,363.53C215.87,362.27 218.83,359.04 220.875,356.935C222.8,354.95 225.09,352.74 226.59,351.22C227.57,350.23 228.12,349.64 229,348.74C230.07,347.65 231.33,346.43 232.56,345.17C233.91,343.8 235.65,341.98 236.75,340.81C237.47,340.04 237.78,339.71 238.52,338.88C239.82,337.44 242.9,334.01 243.81,332.89C244.15,332.47 244.15,332.44 244.48,332C245.39,330.77 248.63,326.53 249.59,324.96C250.04,324.23 250.07,324.01 250.44,323.27C251.14,321.85 252.73,319.3 253.46,317.04C254.24,314.61 254.87,311.75 254.83,309.11C254.79,306.47 254.08,303.4 253.21,301.19C252.5,299.4 251.3,298.05 250.44,296.65C249.69,295.44 249.22,294.36 248.33,293.26C247.3,291.98 245.81,290.81 244.48,289.53C243.06,288.17 241.17,286.24 240.05,285.33C239.43,284.82 239.2,284.73 238.52,284.26C237.19,283.34 234.38,281.41 232.56,280.19C231.04,279.17 229.48,278.09 228.37,277.41C227.66,276.98 227.36,276.84 226.59,276.42C225.19,275.65 222.62,274.26 220.63,273.2C218.65,272.15 215.89,270.71 214.67,270.08C214.13,269.8 214.03,269.74 213.5,269.48C212.45,268.96 210.39,268.01 208.7,267.23C206.82,266.36 204.76,265.41 202.74,264.5C200.67,263.57 198.47,262.61 196.43,261.71000000000004C194.5,260.86 192.71,260.06 190.81,259.23C188.85,258.38 186.84,257.51 184.85,256.67C182.87,255.83 180.18,254.71 178.89,254.18C178.28,253.93 178.11,253.89 177.53,253.63C176.44,253.15 174.57,252.2 172.93,251.44C171.07,250.57 168.98,249.62 166.96,248.7C164.88,247.76 162.63,246.93 160.62,245.865C158.66,244.82 156.93,243.56 155.04,242.39C153.08,241.18 150.42,239.53 149.07,238.71C148.38,238.29 148.06,238.36 147.5,237.78C146.25,236.48 142.99,232.45 143.15,229.85C143.32,227.14 146.73,223.8 148.93,221.85500000000002C150.78,220.22 153.02,219.62 155.04,218.48C157.05,217.34 159.63,215.83 161,215.01C161.72,214.58 161.95,214.35 162.65,214C163.73,213.46 165.41,212.92 166.96,212.29C168.79,211.55 170.94,210.67 172.93,209.84C174.92,209.01 177.27,208.01 178.89,207.31C180.01,206.83 180.74,206.45 181.71,206.07C182.72,205.67 183.64,205.41 184.85,204.98C186.52,204.39 188.82,203.56 190.81,202.84C192.8,202.12 194.77,201.4 196.78,200.65C198.85,199.88 201.03,199.02 203.075,198.28C205,197.59 206.8,197 208.7,196.34C210.66,195.66 212.68,194.95 214.67,194.25C216.66,193.55 218.68,192.82 220.63,192.12C222.52,191.44 224.28,190.78 226.20499999999998,190.09C228.25,189.36 230.48,188.59 232.56,187.85C234.58,187.13 236.53,186.43 238.52,185.71C240.51,184.99 242.79,184.15 244.48,183.52C245.73,183.06 246.7,182.69 247.74,182.3C248.68,181.95 249.36,181.7 250.44,181.3C252.04,180.7 254.42,179.82 256.41,179.07C258.4,178.32 260.37,177.58 262.37,176.81C264.4,176.03 266.5,175.22 268.515,174.44C270.47,173.68 272.36,172.94 274.3,172.18C276.27,171.4 278.27,170.61 280.26,169.82C282.25,169.03 284.65,168.07 286.22,167.45C287.24,167.04 287.83,166.81 288.74,166.44C289.8,166.01 290.88,165.57 292.19,165.04C293.91,164.34 296.16,163.42 298.15,162.61C300.14,161.8 302.3,160.92 304.11,160.19C305.61,159.58 307.15,158.97 308.25,158.52C308.98,158.22 309.29,158.09 310.07,157.76C311.49,157.17 314.05,156.11 316.04,155.29Q318.03,154.47 322,152.85" style="stroke-miterlimit: 1; vector-effect: non-scaling-stroke; fill: none; stroke: rgb(0, 0, 0); stroke-opacity: 1; stroke-width: 0.5px;"/></g><g class="contourlevel"><path class="openline" d="M282.62,428Q281.22,426.84 280.26,426.01C278.72,424.68 275.34,421.69 274.3,420.76C273.92,420.42 273.9,420.42 273.54,420.07C272.57,419.14 269.74,416.21 268.33,414.75C267.36,413.74 266.74,413.17 265.88,412.15C264.78,410.84 263.42,408.89 262.37,407.47C261.5,406.29 260.82,405.58 260.01,404.22C258.83,402.23 257.2,399.13 256.33500000000004,396.46000000000004C255.49,393.84 254.91,391.06 254.83,388.37C254.75,385.72 255.39,382.02 255.8,380.44C255.99,379.73 256.14,379.62 256.41,378.95C256.97,377.56 257.91,374.56 258.91,372.52C259.9,370.52 261.5,368.28 262.37,366.82C262.91,365.91 263.08,365.5 263.68,364.59C264.73,363 267.31,359.66 268.33,358.25C268.84,357.55 268.94,357.36 269.46,356.67C270.5,355.29 273.18,351.99 274.3,350.55C274.91,349.77 275.09,349.51 275.69,348.74C276.77,347.35 279.13,344.37 280.26,342.91C280.93,342.04 281.2,341.7 281.86,340.81C282.96,339.32 285.19,336.19 286.22,334.75C286.79,333.95 286.98,333.74 287.53,332.89C288.63,331.17 290.89,327.62 292.16999999999996,324.91499999999996C293.39,322.33 294.5,319.71 295.11,317.04C295.71,314.44 296.04,311.74 295.86,309.11C295.68,306.45 294.79,303.17 293.99,301.19C293.47,299.89 292.86,299.28 292.19,298.14C291.34,296.7 290.37,294.68 289.31,293.26C288.36,291.99 287.34,291.15 286.22,289.96C284.9,288.55 283.01,286.37 281.88,285.33C281.24,284.73 280.97,284.6 280.26,284.03C278.9,282.94 275.84,280.5 274.3,279.28C273.33,278.51 272.81,278.05 271.92,277.41C270.86,276.64 269.68,275.91 268.33,275.02C266.6,273.87 263.94,272.13 262.37,271.11C261.35,270.45 260.75,270.05 259.84,269.48C258.79,268.83 257.71,268.2 256.41,267.43C254.7,266.42 252.25,264.98 250.44,263.93C248.94,263.06 247.41,262.2 246.31,261.56C245.58,261.13 245.27,260.93 244.48,260.47C243.07,259.64 240.51,258.18 238.52,257.04C236.53,255.9 234.5,254.84 232.51999999999998,253.64999999999998C230.52,252.45 228.6,251.13 226.59,249.86C224.52,248.55 222.28,247.38 220.29,245.91C218.3,244.44 216.36,242.5 214.67,241.04C213.29,239.84 211.87,239.12 210.89,237.78C209.86,236.37 209.33,234.17 208.7,232.72C208.22,231.63 207.44,230.82 207.43,229.85C207.42,228.85 208.23,227.94 208.7,226.8C209.29,225.37 209.67,223.29 210.67,221.93C211.66,220.58 213.22,219.86 214.67,218.66C216.42,217.22 218.41,215.26 220.43,213.89C222.39,212.56 224.56,211.65 226.59,210.52C228.6,209.41 231.12,208 232.56,207.18C233.38,206.71 233.72,206.47 234.49,206.07C235.58,205.51 237.05,204.92 238.52,204.25C240.31,203.43 242.49,202.42 244.48,201.5C246.47,200.57 249.22,199.27 250.44,198.7C250.98,198.45 251.08,198.38 251.6,198.15C252.65,197.68 254.72,196.84 256.41,196.12C258.29,195.32 260.38,194.42 262.37,193.57C264.36,192.71 266.94,191.6 268.33,190.99C269.08,190.66 269.36,190.52 270.07,190.22C271.17,189.75 272.77,189.11 274.3,188.48C276.12,187.73 278.27,186.83 280.26,186C282.25,185.17 284.59,184.19 286.22,183.51C287.36,183.03 288.14,182.71 289.12,182.3C290.13,181.88 291,181.53 292.19,181.04C293.85,180.36 296.16,179.4 298.15,178.59C300.14,177.78 302.27,176.91 304.11,176.16C305.69,175.52 307.44,174.82 308.53,174.37C309.18,174.11 309.39,174.02 310.07,173.74C311.41,173.2 314.05,172.14 316.04,171.34Q318.03,170.55 322,168.97" style="stroke-miterlimit: 1; vector-effect: non-scaling-stroke; fill: none; stroke: rgb(0, 0, 0); stroke-opacity: 1; stroke-width: 0.5px;"/></g><g class="contourlevel"><path class="openline" d="M322,413.11Q321.3,412.6 320.77,412.15C319.69,411.23 317.5,409.15 316.04,407.75C314.75,406.52 313.49,405.41 312.46,404.22C311.54,403.16 310.92,402.19 310.07,401.01C309.05,399.6 307.71,398.08 306.76,396.3C305.68,394.29 304.6,390.76 304.11,389.46C303.91,388.94 303.82,388.91 303.71,388.37C303.41,386.95 303.06,382.59 303.24,380.44C303.37,378.93 303.82,377.93 304.11,376.64C304.41,375.29 304.51,374.09 305.03,372.52C305.78,370.27 307.6,366.47 308.58,364.59C309.15,363.5 309.48,363.09 310.07,362.1C310.94,360.64 312.23,358.34 313.28,356.67C314.21,355.19 315.14,353.89 316.04,352.54C316.9,351.25 317.64,350.1 318.55,348.74Q319.6,347.16 322,343.65" style="stroke-miterlimit: 1; vector-effect: non-scaling-stroke; fill: none; stroke: rgb(0, 0, 0); stroke-opacity: 1; stroke-width: 0.5px;"/><path class="openline" d="M322,287.92Q320.41,286.17 319.47,285.33C318.44,284.41 317.35,283.68 316.04,282.65C314.26,281.25 311.83,279.18 309.765,277.655C307.86,276.24 306.03,275.08 304.11,273.76C302.12,272.39 300.04,270.91 298.025,269.565C296.07,268.26 294.17,267.08 292.19,265.81C290.13,264.49 287.94,263.09 285.9,261.765C283.97,260.51 282.2,259.32 280.26,258.05C278.21,256.7 275.93,255.31 273.905,253.885C271.96,252.52 270.19,251.12 268.33,249.71C266.45,248.28 264.54,247.06 262.67,245.375C260.56,243.47 257.56,239.93 256.41,238.72C255.97,238.26 255.82,238.3 255.5,237.78C254.68,236.46 252.66,232.5 252.63,229.85C252.6,227.21 254.41,223.32 255.28,221.93C255.66,221.33 255.89,221.34 256.41,220.83C257.62,219.64 261.26,216.01 262.37,214.9C262.8,214.47 262.82,214.36 263.27,214C264.25,213.21 266.57,211.88 268.33,210.75C270.24,209.52 273.06,207.7 274.3,206.89C274.87,206.52 274.98,206.4 275.54,206.07C276.6,205.45 278.6,204.5 280.26,203.64C282.13,202.67 284.36,201.51 286.22,200.55C287.86,199.7 289.77,198.68 290.85,198.15C291.43,197.87 291.58,197.82 292.19,197.54C293.47,196.96 296.16,195.72 298.15,194.81C300.14,193.91 302.3,192.93 304.11,192.11C305.63,191.42 307.2,190.7 308.3,190.22C309.01,189.91 309.31,189.79 310.07,189.47C311.47,188.88 314.05,187.8 316.04,186.97Q318.03,186.14 322,184.5" style="stroke-miterlimit: 1; vector-effect: non-scaling-stroke; fill: none; stroke: rgb(0, 0, 0); stroke-opacity: 1; stroke-width: 0.5px;"/></g><g class="contourlevel"><path class="openline" d="M322,261.65Q318.04,259.08 316.04,257.77C314.01,256.44 311.91,255.16 309.91999999999996,253.73000000000002C307.93,252.3 305.92,250.62 304.11,249.21C302.52,247.97 300.7,246.7 299.64,245.7C298.97,245.07 298.8,244.74 298.15,244C296.9,242.58 293.51,239.23 292.69,237.78C292.33,237.14 292.41,236.92 292.19,236.22C291.74,234.81 290.12,231.99 290.11,229.85C290.1,227.7 291.75,224.73 292.19,223.35C292.4,222.71 292.3,222.51 292.64,221.93C293.44,220.59 296.75,217.63 298.15,216.17C299.01,215.27 299.39,214.71 300.24,214C301.29,213.12 302.68,212.38 304.11,211.43C305.88,210.26 308.57,208.48 310.07,207.5C310.98,206.9 311.42,206.56 312.27,206.07C313.35,205.45 314.64,204.85 316.04,204.13Q317.8,203.23 322,201.11" style="stroke-miterlimit: 1; vector-effect: non-scaling-stroke; fill: none; stroke: rgb(0, 0, 0); stroke-opacity: 1; stroke-width: 0.5px;"/></g></g><g class="contourlabels"><text data-notex="1" text-anchor="middle" x="95.7819148377951" y="96.92570097324366" transform="rotate(-4.010543652515309 95.7819148377951 96.92570097324366)" style="white-space: pre; font-family: 'Open Sans', verdana, arial, sans-serif; font-size: 12px; fill: rgb(0, 0, 0); fill-opacity: 1;">0.25</text><text data-notex="1" text-anchor="middle" x="206.6237243650656" y="97.87828490495754" transform="rotate(-29.616921673989104 206.6237243650656 97.87828490495754)" style="white-space: pre; font-family: 'Open Sans', verdana, arial, sans-serif; font-size: 12px; fill: rgb(0, 0, 0); fill-opacity: 1;">0.2</text><text data-notex="1" text-anchor="middle" x="76.28739587900472" y="148.44569821988688" transform="rotate(0.9837649087797008 76.28739587900472 148.44569821988688)" style="white-space: pre; font-family: 'Open Sans', verdana, arial, sans-serif; font-size: 12px; fill: rgb(0, 0, 0); fill-opacity: 1;">0.15</text><text data-notex="1" text-anchor="middle" x="274.7822278281396" y="121.01669456047621" transform="rotate(-26.95762358007852 274.7822278281396 121.01669456047621)" style="white-space: pre; font-family: 'Open Sans', verdana, arial, sans-serif; font-size: 12px; fill: rgb(0, 0, 0); fill-opacity: 1;">0.1</text><text data-notex="1" text-anchor="middle" x="68.68321173203564" y="188.3672213096777" transform="rotate(0.8787689813495939 68.68321173203564 188.3672213096777)" style="white-space: pre; font-family: 'Open Sans', verdana, arial, sans-serif; font-size: 12px; fill: rgb(0, 0, 0); fill-opacity: 1;">0.05</text><text data-notex="1" text-anchor="middle" x="163.00026162373857" y="358.17951003724676" transform="rotate(-35.79571906703921 163.00026162373857 358.17951003724676)" style="white-space: pre; font-family: 'Open Sans', verdana, arial, sans-serif; font-size: 12px; fill: rgb(0, 0, 0); fill-opacity: 1;">0</text><text data-notex="1" text-anchor="middle" x="303.3650021129287" y="148.49513073745098" transform="rotate(-22.95453030403892 303.3650021129287 148.49513073745098)" style="white-space: pre; font-family: 'Open Sans', verdana, arial, sans-serif; font-size: 12px; fill: rgb(0, 0, 0); fill-opacity: 1;">0</text><text data-notex="1" text-anchor="middle" x="226.02305019397377" y="281.7116384717291" transform="rotate(31.20197406523703 226.02305019397377 281.7116384717291)" style="white-space: pre; font-family: 'Open Sans', verdana, arial, sans-serif; font-size: 12px; fill: rgb(0, 0, 0); fill-opacity: 1;">0.05</text><text data-notex="1" text-anchor="middle" x="272.80518287579355" y="360.10513507216416" transform="rotate(-53.05225686157707 272.80518287579355 360.10513507216416)" style="white-space: pre; font-family: 'Open Sans', verdana, arial, sans-serif; font-size: 12px; fill: rgb(0, 0, 0); fill-opacity: 1;">0.1</text><text data-notex="1" text-anchor="middle" x="276.6217760421533" y="211.1877022219814" transform="rotate(-30.717177867482086 276.6217760421533 211.1877022219814)" style="white-space: pre; font-family: 'Open Sans', verdana, arial, sans-serif; font-size: 12px; fill: rgb(0, 0, 0); fill-opacity: 1;">0.15</text></g></g></g></g><g class="overplot"/><path class="xlines-above crisp" style="fill: none; stroke-width: 1px; stroke: rgb(0, 0, 0); stroke-opacity: 0;" d=""/><path class="ylines-above crisp" style="fill: none; stroke-width: 1px; stroke: rgb(0, 0, 0); stroke-opacity: 0;" d=""/><g class="overlines-above"/><g class="xaxislayer-above"><path class="xtick ticks crisp" d="M0,454v5" transform="translate(81.88,0)" style="stroke: rgb(68, 68, 68); stroke-opacity: 1; stroke-width: 1px;"/><path class="xtick ticks crisp" d="M0,454v5" transform="translate(161.38,0)" style="stroke: rgb(68, 68, 68); stroke-opacity: 1; stroke-width: 1px;"/><path class="xtick ticks crisp" d="M0,454v5" transform="translate(240.89,0)" style="stroke: rgb(68, 68, 68); stroke-opacity: 1; stroke-width: 1px;"/><path class="xtick ticks crisp" d="M0,454v5" transform="translate(320.4,0)" style="stroke: rgb(68, 68, 68); stroke-opacity: 1; stroke-width: 1px;"/><g class="xtick"><text text-anchor="middle" x="0" y="473.4" transform="translate(81.88,0)" style="font-family: 'Open Sans', verdana, arial, sans-serif; font-size: 12px; fill: rgb(68, 68, 68); fill-opacity: 1; white-space: pre; opacity: 1;">2</text></g><g class="xtick"><text text-anchor="middle" x="0" y="473.4" style="font-family: 'Open Sans', verdana, arial, sans-serif; font-size: 12px; fill: rgb(68, 68, 68); fill-opacity: 1; white-space: pre; opacity: 1;" transform="translate(161.38,0)">1</text></g><g class="xtick"><text text-anchor="middle" x="0" y="473.4" style="font-family: 'Open Sans', verdana, arial, sans-serif; font-size: 12px; fill: rgb(68, 68, 68); fill-opacity: 1; white-space: pre; opacity: 1;" transform="translate(240.89,0)">0</text></g><g class="xtick"><text text-anchor="middle" x="0" y="473.4" style="font-family: 'Open Sans', verdana, arial, sans-serif; font-size: 12px; fill: rgb(68, 68, 68); fill-opacity: 1; white-space: pre; opacity: 1;" transform="translate(320.4,0)">1</text></g></g><g class="yaxislayer-above"><path class="ytick ticks crisp" d="M61,0h-5" transform="translate(0,426.58)" style="stroke: rgb(68, 68, 68); stroke-opacity: 1; stroke-width: 1px;"/><path class="ytick ticks crisp" d="M61,0h-5" transform="translate(0,373.74)" style="stroke: rgb(68, 68, 68); stroke-opacity: 1; stroke-width: 1px;"/><path class="ytick ticks crisp" d="M61,0h-5" transform="translate(0,320.9)" style="stroke: rgb(68, 68, 68); stroke-opacity: 1; stroke-width: 1px;"/><path class="ytick ticks crisp" d="M61,0h-5" transform="translate(0,268.06)" style="stroke: rgb(68, 68, 68); stroke-opacity: 1; stroke-width: 1px;"/><path class="ytick ticks crisp" d="M61,0h-5" transform="translate(0,215.22)" style="stroke: rgb(68, 68, 68); stroke-opacity: 1; stroke-width: 1px;"/><path class="ytick ticks crisp" d="M61,0h-5" transform="translate(0,162.38)" style="stroke: rgb(68, 68, 68); stroke-opacity: 1; stroke-width: 1px;"/><path class="ytick ticks crisp" d="M61,0h-5" transform="translate(0,109.54)" style="stroke: rgb(68, 68, 68); stroke-opacity: 1; stroke-width: 1px;"/><path class="ytick ticks crisp" d="M61,0h-5" transform="translate(0,56.7)" style="stroke: rgb(68, 68, 68); stroke-opacity: 1; stroke-width: 1px;"/><g class="ytick"><text text-anchor="end" x="53.6" y="4.199999999999999" transform="translate(0,426.58)" style="font-family: 'Open Sans', verdana, arial, sans-serif; font-size: 12px; fill: rgb(68, 68, 68); fill-opacity: 1; white-space: pre; opacity: 1;">2</text></g><g class="ytick"><text text-anchor="end" x="53.6" y="4.199999999999999" style="font-family: 'Open Sans', verdana, arial, sans-serif; font-size: 12px; fill: rgb(68, 68, 68); fill-opacity: 1; white-space: pre; opacity: 1;" transform="translate(0,373.74)">1.5</text></g><g class="ytick"><text text-anchor="end" x="53.6" y="4.199999999999999" style="font-family: 'Open Sans', verdana, arial, sans-serif; font-size: 12px; fill: rgb(68, 68, 68); fill-opacity: 1; white-space: pre; opacity: 1;" transform="translate(0,320.9)">1</text></g><g class="ytick"><text text-anchor="end" x="53.6" y="4.199999999999999" style="font-family: 'Open Sans', verdana, arial, sans-serif; font-size: 12px; fill: rgb(68, 68, 68); fill-opacity: 1; white-space: pre; opacity: 1;" transform="translate(0,268.06)">0.5</text></g><g class="ytick"><text text-anchor="end" x="53.6" y="4.199999999999999" style="font-family: 'Open Sans', verdana, arial, sans-serif; font-size: 12px; fill: rgb(68, 68, 68); fill-opacity: 1; white-space: pre; opacity: 1;" transform="translate(0,215.22)">0</text></g><g class="ytick"><text text-anchor="end" x="53.6" y="4.199999999999999" style="font-family: 'Open Sans', verdana, arial, sans-serif; font-size: 12px; fill: rgb(68, 68, 68); fill-opacity: 1; white-space: pre; opacity: 1;" transform="translate(0,162.38)">0.5</text></g><g class="ytick"><text text-anchor="end" x="53.6" y="4.199999999999999" style="font-family: 'Open Sans', verdana, arial, sans-serif; font-size: 12px; fill: rgb(68, 68, 68); fill-opacity: 1; white-space: pre; opacity: 1;" transform="translate(0,109.54)">1</text></g><g class="ytick"><text text-anchor="end" x="53.6" y="4.199999999999999" style="font-family: 'Open Sans', verdana, arial, sans-serif; font-size: 12px; fill: rgb(68, 68, 68); fill-opacity: 1; white-space: pre; opacity: 1;" transform="translate(0,56.7)">1.5</text></g></g><g class="overaxes-above"/></g></g><g class="polarlayer"/><g class="ternarylayer"/><g class="geolayer"/><g class="funnelarealayer"/><g class="pielayer"/><g class="iciclelayer"/><g class="treemaplayer"/><g class="sunburstlayer"/><g class="glimages"/><defs id="topdefs-a1acdc"><g class="clips"/></defs><g class="layer-above"><g class="imagelayer"/><g class="shapelayer"/></g><g class="infolayer"><g class="cb0e42db colorbar" transform="translate(62,25)"><rect class="cbbg" x="327.5" y="-0.5" width="299.046875" height="215" style="fill: rgb(0, 0, 0); fill-opacity: 0; stroke: rgb(68, 68, 68); stroke-opacity: 1; stroke-width: 0;"/><g class="cbfills" transform="translate(0,32)"><rect class="cbfill" x="338" width="30" y="1" height="171" fill="#000000" style=""/><rect class="cbfill" x="338" width="30" y="1" height="163" fill="#1a1a1a" style=""/><rect class="cbfill" x="338" width="30" y="1" height="145" fill="#333333" style=""/><rect class="cbfill" x="338" width="30" y="1" height="128" fill="#4d4d4d" style=""/><rect class="cbfill" x="338" width="30" y="1" height="111" fill="#666666" style=""/><rect class="cbfill" x="338" width="30" y="1" height="94" fill="#808080" style=""/><rect class="cbfill" x="338" width="30" y="1" height="77" fill="#999999" style=""/><rect class="cbfill" x="338" width="30" y="1" height="59" fill="#b3b3b3" style=""/><rect class="cbfill" x="338" width="30" y="1" height="42" fill="#cccccc" style=""/><rect class="cbfill" x="338" width="30" y="1" height="25" fill="#e6e6e6" style=""/><rect class="cbfill" x="338" width="30" y="0" height="9" fill="#ffffff" style=""/></g><g class="cblines" transform="translate(0,32)"><path class="cbline" d="M338,164.25h30" style="fill: none; stroke: rgb(0, 0, 0); stroke-opacity: 1; stroke-width: 0.5px;"/><path class="cbline" d="M338,146.25h30" style="fill: none; stroke: rgb(0, 0, 0); stroke-opacity: 1; stroke-width: 0.5px;"/><path class="cbline" d="M338,129.25h30" style="fill: none; stroke: rgb(0, 0, 0); stroke-opacity: 1; stroke-width: 0.5px;"/><path class="cbline" d="M338,112.25h30" style="fill: none; stroke: rgb(0, 0, 0); stroke-opacity: 1; stroke-width: 0.5px;"/><path class="cbline" d="M338,95.25h30" style="fill: none; stroke: rgb(0, 0, 0); stroke-opacity: 1; stroke-width: 0.5px;"/><path class="cbline" d="M338,78.25h30" style="fill: none; stroke: rgb(0, 0, 0); stroke-opacity: 1; stroke-width: 0.5px;"/><path class="cbline" d="M338,60.25h30" style="fill: none; stroke: rgb(0, 0, 0); stroke-opacity: 1; stroke-width: 0.5px;"/><path class="cbline" d="M338,43.25h30" style="fill: none; stroke: rgb(0, 0, 0); stroke-opacity: 1; stroke-width: 0.5px;"/><path class="cbline" d="M338,26.25h30" style="fill: none; stroke: rgb(0, 0, 0); stroke-opacity: 1; stroke-width: 0.5px;"/><path class="cbline" d="M338,9.25h30" style="fill: none; stroke: rgb(0, 0, 0); stroke-opacity: 1; stroke-width: 0.5px;"/></g><g class="cbaxis crisp" transform="translate(0,-25)"><path class="ycb0e42dbtick ticks crisp" d="M368,0h2" transform="translate(0,203.15187499999996)" style="stroke: rgb(68, 68, 68); stroke-opacity: 1; stroke-width: 1px;"/><path class="ycb0e42dbtick ticks crisp" d="M368,0h2" transform="translate(0,168.681875)" style="stroke: rgb(68, 68, 68); stroke-opacity: 1; stroke-width: 1px;"/><path class="ycb0e42dbtick ticks crisp" d="M368,0h2" transform="translate(0,134.22187499999998)" style="stroke: rgb(68, 68, 68); stroke-opacity: 1; stroke-width: 1px;"/><path class="ycb0e42dbtick ticks crisp" d="M368,0h2" transform="translate(0,99.75187499999998)" style="stroke: rgb(68, 68, 68); stroke-opacity: 1; stroke-width: 1px;"/><path class="ycb0e42dbtick ticks crisp" d="M368,0h2" transform="translate(0,65.29187499999998)" style="stroke: rgb(68, 68, 68); stroke-opacity: 1; stroke-width: 1px;"/><g class="ycb0e42dbtick"><text text-anchor="start" x="372.4" y="4.199999999999999" transform="translate(0,203.15187499999996)" style="font-family: 'Open Sans', verdana, arial, sans-serif; font-size: 12px; fill: rgb(68, 68, 68); fill-opacity: 1; white-space: pre; opacity: 1;">0.2</text></g><g class="ycb0e42dbtick"><text text-anchor="start" x="372.4" y="4.199999999999999" style="font-family: 'Open Sans', verdana, arial, sans-serif; font-size: 12px; fill: rgb(68, 68, 68); fill-opacity: 1; white-space: pre; opacity: 1;" transform="translate(0,168.681875)">0.1</text></g><g class="ycb0e42dbtick"><text text-anchor="start" x="372.4" y="4.199999999999999" style="font-family: 'Open Sans', verdana, arial, sans-serif; font-size: 12px; fill: rgb(68, 68, 68); fill-opacity: 1; white-space: pre; opacity: 1;" transform="translate(0,134.22187499999998)">0</text></g><g class="ycb0e42dbtick"><text text-anchor="start" x="372.4" y="4.199999999999999" style="font-family: 'Open Sans', verdana, arial, sans-serif; font-size: 12px; fill: rgb(68, 68, 68); fill-opacity: 1; white-space: pre; opacity: 1;" transform="translate(0,99.75187499999998)">0.1</text></g><g class="ycb0e42dbtick"><text text-anchor="start" x="372.4" y="4.199999999999999" style="font-family: 'Open Sans', verdana, arial, sans-serif; font-size: 12px; fill: rgb(68, 68, 68); fill-opacity: 1; white-space: pre; opacity: 1;" transform="translate(0,65.29187499999998)">0.2</text></g></g><g class="cbtitleunshift" transform="translate(-62,-25)"><g class="cbtitle" transform="translate(-0.5,-0.5)"><text class="ycb0e42dbtitle" x="400.44" y="48.49999999999998" text-anchor="start" style="font-family: 'Open Sans', verdana, arial, sans-serif; font-size: 14px; fill: rgb(68, 68, 68); opacity: 1; font-weight: normal; white-space: pre;">Final_Data$z[Final_Data$groupy == 1]</text></g></g><rect class="cboutline" x="338" y="31.671875" width="30" height="172.328125" style="stroke: rgb(68, 68, 68); stroke-opacity: 1; fill: none; stroke-width: 1;"/></g><g class="g-gtitle"/><g class="g-xtitle" transform="translate(0,-7.671875)"><text class="xtitle" x="223" y="505" text-anchor="middle" style="font-family: 'Open Sans', verdana, arial, sans-serif; font-size: 14px; fill: rgb(68, 68, 68); opacity: 1; font-weight: normal; white-space: pre;">Final_Data$x[Final_Data$groupy == 1]</text></g><g class="g-ytitle" transform="translate(-4.515625,0)"><text class="ytitle" transform="rotate(-90,24,239)" x="24" y="239" text-anchor="middle" style="font-family: 'Open Sans', verdana, arial, sans-serif; font-size: 14px; fill: rgb(68, 68, 68); opacity: 1; font-weight: normal; white-space: pre;">Final_Data$y[Final_Data$groupy == 1]</text></g></g></svg>